<svg width="39" height="39" viewBox="0 0 39 39" fill="none" xmlns="http://www.w3.org/2000/svg">
<path d="M27.8882 39H11.1117C10.3891 38.9991 9.69634 38.7115 9.18568 38.2002C8.67502 37.6889 8.38818 36.9959 8.38818 36.2733V2.72675C8.38818 2.00413 8.67502 1.31107 9.18568 0.799795C9.69634 0.288523 10.3891 0.000861283 11.1117 0L27.8882 0C28.6108 0.000861283 29.3035 0.288523 29.8142 0.799795C30.3248 1.31107 30.6117 2.00413 30.6117 2.72675V36.2733C30.6117 36.9959 30.3248 37.6889 29.8142 38.2002C29.3035 38.7115 28.6108 38.9991 27.8882 39ZM11.1117 1.25775C10.7226 1.25861 10.3498 1.41376 10.075 1.68916C9.80026 1.96456 9.64593 2.33771 9.64593 2.72675V36.2733C9.64593 36.6623 9.80026 37.0354 10.075 37.3108C10.3498 37.5862 10.7226 37.7414 11.1117 37.7422H27.8882C28.2772 37.7414 28.65 37.5862 28.9248 37.3108C29.1996 37.0354 29.3539 36.6623 29.3539 36.2733V2.72675C29.3539 2.33771 29.1996 1.96456 28.9248 1.68916C28.65 1.41376 28.2772 1.25861 27.8882 1.25775H11.1117Z" fill="#BD9964"/>
<path d="M23.9524 3.35405H15.0474L12.7659 1.07255L13.6531 0.185303L15.5674 2.0963H23.4324L25.3466 0.185303L26.2339 1.07255L23.9524 3.35405Z" fill="#BD9964"/>
<path d="M23.6956 33.5498H15.3074V34.8076H23.6956V33.5498Z" fill="#BD9964"/>
</svg>
