<svg width="329" height="317" viewBox="0 0 329 317" fill="none" xmlns="http://www.w3.org/2000/svg">
<circle cx="163.881" cy="158.158" r="158.158" fill="#61D5C7" fill-opacity="0.38"/>
<path d="M295.388 237.4H273.643V237.553H295.388V237.4Z" fill="#EBEBEB"/>
<path d="M217.467 239.063H211.762V239.216H217.467V239.063Z" fill="#EBEBEB"/>
<path d="M272.986 231.729H260.387V231.882H272.986V231.729Z" fill="#EBEBEB"/>
<path d="M62.8004 232.756H34.4434V232.908H62.8004V232.756Z" fill="#EBEBEB"/>
<path d="M72.8067 232.756H68.6506V232.908H72.8067V232.756Z" fill="#EBEBEB"/>
<path d="M147.825 235.335H86.3184V235.487H147.825V235.335Z" fill="#EBEBEB"/>
<path d="M156.525 200.309H29.7424C28.7481 200.309 27.7945 199.941 27.0915 199.286C26.3884 198.632 25.9934 197.744 25.9934 196.819V30.9293C26.0021 30.0091 26.4009 29.1293 27.103 28.4814C27.8051 27.8335 28.7538 27.4701 29.7424 27.4701H156.525C157.017 27.4701 157.505 27.5604 157.96 27.7357C158.415 27.9111 158.828 28.1682 159.176 28.4922C159.524 28.8163 159.8 29.201 159.989 29.6244C160.177 30.0478 160.274 30.5016 160.274 30.9599V196.819C160.274 197.277 160.177 197.731 159.989 198.154C159.8 198.578 159.524 198.962 159.176 199.286C158.828 199.61 158.415 199.868 157.96 200.043C157.505 200.218 157.017 200.309 156.525 200.309ZM29.7424 27.5923C28.7922 27.5939 27.8814 27.946 27.2094 28.5715C26.5375 29.1969 26.1593 30.0448 26.1575 30.9293V196.819C26.1593 197.703 26.5375 198.551 27.2094 199.177C27.8814 199.802 28.7922 200.154 29.7424 200.156H156.525C157.475 200.154 158.386 199.802 159.058 199.177C159.73 198.551 160.108 197.703 160.11 196.819V30.9293C160.108 30.0448 159.73 29.1969 159.058 28.5715C158.386 27.946 157.475 27.5939 156.525 27.5923H29.7424Z" fill="#EBEBEB"/>
<path d="M298.54 200.309H171.757C170.763 200.309 169.809 199.941 169.106 199.286C168.403 198.632 168.008 197.744 168.008 196.819V30.9293C168.017 30.0091 168.416 29.1293 169.118 28.4814C169.82 27.8335 170.769 27.4701 171.757 27.4701H298.54C299.534 27.4701 300.488 27.8378 301.191 28.4922C301.894 29.1467 302.289 30.0343 302.289 30.9599V196.819C302.289 197.744 301.894 198.632 301.191 199.286C300.488 199.941 299.534 200.309 298.54 200.309ZM171.757 27.5923C170.807 27.5939 169.896 27.946 169.224 28.5715C168.552 29.1969 168.174 30.0448 168.172 30.9293V196.819C168.174 197.703 168.552 198.551 169.224 199.177C169.896 199.802 170.807 200.154 171.757 200.156H298.54C299.49 200.154 300.401 199.802 301.073 199.177C301.745 198.551 302.123 197.703 302.125 196.819V30.9293C302.123 30.0448 301.745 29.1969 301.073 28.5715C300.401 27.946 299.49 27.5939 298.54 27.5923H171.757Z" fill="#EBEBEB"/>
<path d="M328.282 227.567H0V227.719H328.282V227.567Z" fill="#EBEBEB"/>
<path d="M274.838 169.597C273.577 170.771 272.986 176.008 272.986 176.008C272.986 176.008 272.389 170.771 271.128 169.597C269.868 168.424 264.248 167.874 264.248 167.874C264.248 167.874 269.868 167.324 271.128 166.15C272.389 164.977 272.986 159.739 272.986 159.739C272.986 159.739 273.577 164.977 274.838 166.15C276.099 167.324 281.725 167.874 281.725 167.874C281.725 167.874 276.099 168.424 274.838 169.597Z" fill="#F5F5F5"/>
<path d="M284.095 196.012C282.126 197.845 281.233 205.913 281.233 205.913C281.233 205.913 280.314 197.827 278.37 196.012C276.427 194.197 267.727 193.341 267.727 193.341C267.727 193.341 276.414 192.486 278.383 190.652C280.353 188.819 281.246 180.745 281.246 180.745C281.246 180.745 282.165 188.837 284.109 190.652C286.052 192.467 294.752 193.317 294.752 193.317C294.752 193.317 286.045 194.197 284.095 196.012Z" fill="#F0F0F0"/>
<path d="M263.283 203.297C262.442 204.079 262.042 207.575 262.042 207.575C262.042 207.575 261.648 204.073 260.807 203.297C259.967 202.521 256.211 202.142 256.211 202.142C256.211 202.142 259.974 201.775 260.807 200.987C261.641 200.199 262.042 196.709 262.042 196.709C262.042 196.709 262.442 200.211 263.283 200.987C264.123 201.763 267.879 202.142 267.879 202.142C267.879 202.142 264.097 202.509 263.283 203.297Z" fill="#EBEBEB"/>
<path d="M73.3316 61.5549C75.6953 63.7551 86.2594 64.7941 86.2594 64.7941C86.2594 64.7941 75.6953 65.8331 73.3316 68.0333C70.968 70.2335 69.8453 80.0733 69.8453 80.0733C69.8453 80.0733 68.7291 70.2396 66.3655 68.0333C64.0018 65.827 53.4312 64.7941 53.4312 64.7941C53.4312 64.7941 63.9953 63.7551 66.3655 61.5549C68.7357 59.3547 69.8453 49.5149 69.8453 49.5149C69.8453 49.5149 70.9614 59.3486 73.3316 61.5549Z" fill="#F5F5F5"/>
<path d="M90.7834 47.8955C91.9652 48.9956 97.2505 49.5151 97.2505 49.5151C97.2505 49.5151 91.9652 50.0346 90.7834 51.1347C89.6016 52.2348 89.0435 57.1547 89.0435 57.1547C89.0435 57.1547 88.4854 52.2654 87.3036 51.1347C86.1218 50.004 80.8364 49.5151 80.8364 49.5151C80.8364 49.5151 86.0889 48.9956 87.3036 47.8955C88.5182 46.7954 89.0435 41.8755 89.0435 41.8755C89.0435 41.8755 89.6016 46.7893 90.7834 47.8955Z" fill="#F0F0F0"/>
<path d="M113.015 70.2519C113.862 71.0342 117.61 71.407 117.61 71.407C117.61 71.407 113.855 71.7737 113.015 72.5622C112.174 73.3506 111.774 76.8403 111.774 76.8403C111.774 76.8403 111.38 73.3383 110.533 72.5622C109.686 71.786 105.937 71.407 105.937 71.407C105.937 71.407 109.699 71.0342 110.533 70.2519C111.367 69.4696 111.774 65.9738 111.774 65.9738C111.774 65.9738 112.174 69.4757 113.015 70.2519Z" fill="#EBEBEB"/>
<path d="M222.483 46.9173C221.223 48.0908 220.606 53.3285 220.606 53.3285C220.606 53.3285 220.015 48.0908 218.754 46.9173C217.494 45.7439 211.893 45.1939 211.893 45.1939C211.893 45.1939 217.52 44.6377 218.78 43.4642C220.041 42.2908 220.606 37.0592 220.606 37.0592C220.606 37.0592 221.197 42.2969 222.457 43.4642C223.718 44.6316 229.371 45.1939 229.371 45.1939C229.371 45.1939 223.744 45.7439 222.483 46.9173Z" fill="#F5F5F5"/>
<path d="M127.938 42.7921C126.892 42.7921 125.868 43.081 124.998 43.6223C124.128 44.1636 123.45 44.9329 123.049 45.833C122.649 46.7331 122.544 47.7236 122.748 48.6792C122.952 49.6347 123.456 50.5124 124.196 51.2014C124.936 51.8903 125.879 52.3594 126.906 52.5495C127.932 52.7396 128.996 52.642 129.963 52.2692C130.93 51.8963 131.757 51.265 132.338 50.4549C132.92 49.6448 133.23 48.6924 133.23 47.7181C133.231 47.071 133.095 46.4301 132.829 45.8321C132.563 45.2341 132.174 44.6907 131.682 44.2331C131.19 43.7755 130.607 43.4127 129.964 43.1654C129.322 42.9182 128.633 42.7913 127.938 42.7921ZM127.938 46.4591C126.33 46.4591 125.023 47.9932 125.023 46.4958C125.004 46.1282 125.066 45.7609 125.204 45.4161C125.342 45.0713 125.554 44.7562 125.827 44.4899C126.1 44.2236 126.428 44.0116 126.791 43.8667C127.155 43.7219 127.546 43.6472 127.941 43.6472C128.337 43.6472 128.728 43.7219 129.091 43.8667C129.455 44.0116 129.783 44.2236 130.056 44.4899C130.329 44.7562 130.541 45.0713 130.679 45.4161C130.817 45.7609 130.879 46.1282 130.86 46.4958C130.86 47.9932 129.553 46.4591 127.938 46.4591Z" fill="#F5F5F5"/>
<path d="M132.258 44.8823C132.483 45.3945 132.599 45.9425 132.6 46.4958C132.623 47.0789 132.52 47.6605 132.297 48.2057C132.073 48.7509 131.734 49.2486 131.299 49.6689C130.864 50.0892 130.343 50.4235 129.766 50.6519C129.189 50.8802 128.568 50.9979 127.941 50.9979C127.315 50.9979 126.694 50.8802 126.117 50.6519C125.54 50.4235 125.019 50.0892 124.584 49.6689C124.149 49.2486 123.81 48.7509 123.586 48.2057C123.363 47.6605 123.26 47.0789 123.283 46.4958C123.282 45.9429 123.395 45.395 123.618 44.8823C123.058 45.6197 122.726 46.4862 122.659 47.3872C122.592 48.2883 122.792 49.1891 123.238 49.9912C123.684 50.7934 124.359 51.4659 125.187 51.9354C126.016 52.4049 126.968 52.6532 127.938 52.6532C128.908 52.6532 129.86 52.4049 130.689 51.9354C131.518 51.4659 132.192 50.7934 132.638 49.9912C133.084 49.1891 133.284 48.2883 133.217 47.3872C133.15 46.4862 132.819 45.6197 132.258 44.8823Z" fill="#F0F0F0"/>
<path d="M129.717 56.3173C128.319 56.3161 126.952 56.7006 125.789 57.4223C124.626 58.1441 123.718 59.1706 123.182 60.3722C122.645 61.5737 122.503 62.8965 122.773 64.1732C123.044 65.4499 123.715 66.6234 124.701 67.5453C125.688 68.4672 126.946 69.0961 128.317 69.3527C129.687 69.6092 131.109 69.4818 132.402 68.9866C133.695 68.4914 134.801 67.6506 135.58 66.5704C136.36 65.4903 136.778 64.2192 136.782 62.9179C136.785 62.0522 136.605 61.1945 136.252 60.3938C135.898 59.5931 135.379 58.8653 134.722 58.252C134.066 57.6388 133.286 57.1522 132.427 56.8202C131.568 56.4882 130.647 56.3173 129.717 56.3173ZM129.717 61.2066C127.564 61.2066 125.824 63.254 125.824 61.2494C125.824 60.2882 126.234 59.3664 126.964 58.6867C127.694 58.007 128.685 57.6252 129.717 57.6252C130.75 57.6252 131.74 58.007 132.47 58.6867C133.201 59.3664 133.611 60.2882 133.611 61.2494C133.611 63.2662 131.871 61.2188 129.717 61.2188V61.2066Z" fill="#FAFAFA"/>
<path d="M135.489 59.1102C135.87 59.9897 136.014 60.9429 135.908 61.8862C135.801 62.8295 135.447 63.734 134.877 64.5203C134.308 65.3066 133.539 65.9507 132.639 66.396C131.74 66.8412 130.736 67.0741 129.717 67.0741C128.699 67.0741 127.695 66.8412 126.795 66.396C125.896 65.9507 125.127 65.3066 124.557 64.5203C123.988 63.734 123.634 62.8295 123.527 61.8862C123.421 60.9429 123.565 59.9897 123.946 59.1102C123.2 60.0948 122.758 61.2514 122.669 62.4538C122.581 63.6563 122.849 64.8582 123.445 65.9283C124.04 66.9984 124.94 67.8956 126.047 68.5218C127.153 69.1481 128.423 69.4793 129.717 69.4793C131.012 69.4793 132.282 69.1481 133.388 68.5218C134.495 67.8956 135.395 66.9984 135.99 65.9283C136.586 64.8582 136.854 63.6563 136.766 62.4538C136.677 61.2514 136.235 60.0948 135.489 59.1102Z" fill="#F5F5F5"/>
<path d="M137.294 50.45C136.871 50.056 136.332 49.7877 135.745 49.679C135.157 49.5703 134.549 49.6261 133.996 49.8394C133.443 50.0526 132.97 50.4138 132.638 50.8771C132.305 51.3404 132.127 51.8851 132.127 52.4424C132.127 52.9996 132.305 53.5443 132.638 54.0076C132.97 54.471 133.443 54.8321 133.996 55.0453C134.549 55.2586 135.157 55.3144 135.745 55.2057C136.332 55.0971 136.871 54.8288 137.294 54.4348C137.575 54.1731 137.798 53.8625 137.951 53.5207C138.103 53.1788 138.181 52.8124 138.181 52.4424C138.181 52.0723 138.103 51.7059 137.951 51.3641C137.798 51.0222 137.575 50.7116 137.294 50.45ZM135.699 51.9168C135.042 51.3056 133.854 51.44 134.504 50.8289C134.817 50.5379 135.242 50.3748 135.685 50.3754C136.127 50.3759 136.552 50.5402 136.864 50.8319C137.177 51.1237 137.352 51.5191 137.351 51.9311C137.351 52.3432 137.174 52.7381 136.861 53.0291C136.211 53.6525 136.349 52.5279 135.699 51.9168Z" fill="#F5F5F5"/>
<path d="M138.135 52.9254C137.964 53.2993 137.697 53.6285 137.358 53.884C137.018 54.1395 136.617 54.3136 136.188 54.3908C135.76 54.4681 135.317 54.4462 134.9 54.3271C134.483 54.2079 134.103 53.9953 133.795 53.7077C133.547 53.4772 133.349 53.2033 133.215 52.9018C133.081 52.6003 133.011 52.277 133.011 51.9506C133.011 51.6241 133.081 51.3009 133.215 50.9993C133.349 50.6978 133.547 50.424 133.795 50.1935C134.037 49.9706 134.322 49.7923 134.635 49.6678C134.089 49.7564 133.58 49.9827 133.163 50.3222C132.746 50.6616 132.436 51.1012 132.269 51.593C132.102 52.0847 132.083 52.6098 132.214 53.1109C132.345 53.6121 132.622 54.0701 133.014 54.435C133.406 54.7996 133.898 55.057 134.436 55.1792C134.974 55.3013 135.538 55.2836 136.067 55.1279C136.595 54.9722 137.067 54.6844 137.432 54.296C137.797 53.9077 138.04 53.4335 138.135 52.9254Z" fill="#F0F0F0"/>
<path d="M63.91 205.418C64.7754 204.633 65.3711 203.627 65.622 202.527C65.8728 201.427 65.7675 200.282 65.3193 199.238C64.8711 198.194 64.1001 197.297 63.104 196.66C62.1079 196.024 60.9314 195.677 59.7234 195.664C58.5154 195.65 57.3301 195.97 56.3177 196.584C55.3052 197.197 54.511 198.076 54.0356 199.11C53.5602 200.144 53.4249 201.286 53.647 202.391C53.869 203.497 54.4382 204.516 55.2828 205.32C56.4136 206.397 57.9572 207.012 59.5747 207.03C61.1922 207.049 62.7514 206.469 63.91 205.418ZM60.7257 202.399C62.0388 201.177 61.7959 198.94 63.0959 200.174C63.4054 200.468 63.6499 200.815 63.8152 201.196C63.9806 201.577 64.0637 201.985 64.0597 202.396C64.0558 202.808 63.9648 203.214 63.7921 203.592C63.6194 203.971 63.3684 204.314 63.0532 204.602C62.7381 204.89 62.3651 205.118 61.9555 205.272C61.5459 205.426 61.1077 205.503 60.666 205.499C60.2243 205.496 59.7877 205.411 59.3811 205.25C58.9745 205.09 58.6059 204.856 58.2964 204.562C56.9964 203.328 59.3994 203.609 60.7257 202.399Z" fill="#F5F5F5"/>
<path d="M58.5394 206.946C57.7373 206.616 57.034 206.109 56.4909 205.469C55.9479 204.828 55.5816 204.073 55.424 203.271C55.2663 202.468 55.3222 201.641 55.5867 200.863C55.8512 200.085 56.3163 199.379 56.9414 198.807C57.5665 198.235 58.3325 197.814 59.1726 197.581C60.0128 197.348 60.9014 197.309 61.7611 197.47C62.6207 197.63 63.4251 197.983 64.1041 198.499C64.7832 199.016 65.3161 199.679 65.6565 200.431C65.5024 199.55 65.1272 198.715 64.5615 197.994C63.9957 197.273 63.2554 196.687 62.4005 196.282C61.5456 195.878 60.6003 195.666 59.6413 195.666C58.6823 195.665 57.7366 195.875 56.8811 196.278C56.0255 196.681 55.2841 197.267 54.7171 197.987C54.1501 198.706 53.7735 199.541 53.6178 200.422C53.4621 201.302 53.5317 202.205 53.821 203.056C54.1103 203.907 54.6111 204.683 55.2828 205.32C56.1584 206.166 57.2976 206.735 58.5394 206.946Z" fill="#F0F0F0"/>
<path d="M54.7772 186.191C55.9289 185.14 56.7199 183.794 57.0502 182.324C57.3804 180.855 57.235 179.327 56.6323 177.934C56.0297 176.542 54.9969 175.347 53.6646 174.5C52.3322 173.654 50.7602 173.195 49.1473 173.18C47.5344 173.166 45.9531 173.597 44.6034 174.419C43.2537 175.241 42.1963 176.417 41.5648 177.799C40.9333 179.18 40.7561 180.705 41.0557 182.18C41.3553 183.656 42.1182 185.015 43.2479 186.087C44.7622 187.523 46.8274 188.341 48.9894 188.361C51.1514 188.38 53.2333 187.6 54.7772 186.191ZM50.5555 182.157C52.3282 180.537 51.9868 177.537 53.7267 179.187C54.5616 179.983 55.0224 181.056 55.0076 182.169C54.9928 183.282 54.5037 184.344 53.6479 185.121C52.792 185.898 51.6395 186.327 50.4439 186.314C49.2483 186.3 48.1076 185.844 47.2726 185.048C45.5393 183.398 48.7565 183.777 50.5555 182.157Z" fill="#FAFAFA"/>
<path d="M47.601 188.207C46.6294 187.813 45.7635 187.224 45.0655 186.481C44.3674 185.739 43.8545 184.862 43.5636 183.913C43.2726 182.965 43.2108 181.968 43.3825 180.994C43.5542 180.021 43.9553 179.095 44.5569 178.283C45.1585 177.47 45.9458 176.792 46.8622 176.296C47.7787 175.801 48.8016 175.5 49.8575 175.416C50.9135 175.332 51.9765 175.466 52.9701 175.81C53.9637 176.153 54.8634 176.697 55.6046 177.402C56.2525 178.02 56.7673 178.749 57.1212 179.547C56.8861 178.172 56.2495 176.884 55.2809 175.824C54.3124 174.763 53.0492 173.971 51.6295 173.534C50.2098 173.097 48.6883 173.031 47.2314 173.345C45.7745 173.658 44.4382 174.339 43.3687 175.312C42.2992 176.285 41.5377 177.512 41.1675 178.861C40.7972 180.21 40.8325 181.627 41.2694 182.958C41.7063 184.29 42.528 185.483 43.6447 186.409C44.7614 187.335 46.1301 187.957 47.601 188.207Z" fill="#F5F5F5"/>
<path d="M287.438 104.477C288.589 103.426 289.38 102.081 289.711 100.611C290.041 99.1413 289.895 97.6135 289.293 96.2208C288.69 94.8281 287.657 93.6331 286.325 92.7868C284.993 91.9405 283.421 91.4811 281.808 91.4665C280.195 91.452 278.614 91.883 277.264 92.7051C275.914 93.5272 274.857 94.7035 274.225 96.085C273.594 97.4666 273.417 98.9915 273.716 100.467C274.016 101.942 274.779 103.302 275.908 104.373C277.423 105.808 279.488 106.625 281.65 106.645C283.811 106.664 285.893 105.885 287.438 104.477ZM283.183 100.443C284.956 98.8239 284.614 95.823 286.348 97.4732C287.131 98.2741 287.55 99.3264 287.517 100.409C287.484 101.491 287.002 102.52 286.172 103.278C285.341 104.037 284.228 104.467 283.064 104.477C281.901 104.487 280.779 104.078 279.933 103.334C278.193 101.66 281.41 102.033 283.183 100.419V100.443Z" fill="#FAFAFA"/>
<path d="M280.261 106.494C279.186 106.056 278.244 105.378 277.516 104.522C276.787 103.665 276.296 102.656 276.084 101.581C275.873 100.507 275.947 99.4009 276.302 98.3596C276.656 97.3183 277.279 96.3738 278.116 95.6087C278.954 94.8437 279.98 94.2815 281.105 93.9714C282.23 93.6612 283.42 93.6127 284.57 93.8299C285.72 94.0471 286.795 94.5235 287.701 95.2173C288.608 95.9111 289.317 96.8012 289.768 97.8096C289.529 96.4362 288.888 95.1506 287.917 94.093C286.946 93.0355 285.681 92.2469 284.26 91.8132C282.84 91.3796 281.319 91.3177 279.864 91.6342C278.408 91.9508 277.074 92.6336 276.007 93.6082C274.941 94.5827 274.182 95.8114 273.815 97.1601C273.447 98.5088 273.485 99.9255 273.924 101.255C274.363 102.585 275.186 103.778 276.304 104.701C277.422 105.625 278.79 106.246 280.261 106.494Z" fill="#F5F5F5"/>
<path d="M198.282 69.0664C199.901 67.588 201.012 65.6962 201.475 63.6301C201.938 61.564 201.732 59.4165 200.884 57.4592C200.036 55.5018 198.584 53.8225 196.71 52.6336C194.837 51.4447 192.627 50.7997 190.359 50.78C188.092 50.7603 185.87 51.367 183.973 52.5232C182.076 53.6793 180.59 55.3332 179.703 57.2755C178.816 59.2178 178.567 61.3614 178.989 63.4351C179.411 65.5089 180.484 67.4196 182.072 68.9258C184.202 70.9454 187.106 72.0947 190.146 72.1211C193.186 72.1474 196.113 71.0486 198.282 69.0664ZM192.308 63.3947C194.796 61.1212 194.31 56.9041 196.759 59.2204C197.891 60.3417 198.506 61.8309 198.473 63.3691C198.439 64.9073 197.76 66.3722 196.581 67.45C195.401 68.5279 193.815 69.133 192.163 69.1358C190.51 69.1386 188.922 68.5389 187.738 67.4651C185.263 65.1427 189.787 65.6744 192.281 63.3947H192.308Z" fill="#FAFAFA"/>
<path d="M188.171 71.945C186.657 71.3302 185.328 70.3789 184.3 69.1746C183.273 67.9702 182.578 66.5495 182.278 65.0371C181.978 63.5248 182.081 61.9669 182.578 60.5002C183.075 59.0335 183.951 57.7028 185.13 56.6247C186.308 55.5467 187.752 54.7542 189.337 54.3169C190.921 53.8796 192.596 53.8108 194.215 54.1166C195.834 54.4223 197.348 55.0932 198.624 56.0704C199.9 57.0476 200.898 58.3014 201.533 59.7216C201.193 57.7919 200.291 55.9861 198.924 54.5014C197.557 53.0167 195.778 51.9102 193.781 51.3027C191.784 50.6952 189.647 50.6101 187.601 51.0567C185.556 51.5032 183.682 52.4643 182.184 53.835C180.686 55.2056 179.621 56.9331 179.106 58.8288C178.591 60.7245 178.645 62.7155 179.263 64.5844C179.881 66.4533 181.039 68.1282 182.61 69.4263C184.181 70.7243 186.105 71.5956 188.171 71.945Z" fill="#F5F5F5"/>
<path d="M281.666 116.035C282.357 116.041 283.034 115.856 283.612 115.504C284.19 115.151 284.643 114.647 284.913 114.056C285.184 113.464 285.259 112.811 285.131 112.179C285.003 111.547 284.676 110.965 284.192 110.506C283.708 110.047 283.089 109.732 282.413 109.6C281.736 109.469 281.034 109.527 280.393 109.768C279.752 110.008 279.202 110.42 278.813 110.951C278.424 111.483 278.213 112.11 278.206 112.753C278.201 113.18 278.287 113.604 278.458 114C278.629 114.397 278.883 114.758 279.204 115.062C279.526 115.367 279.909 115.61 280.331 115.777C280.754 115.944 281.207 116.031 281.666 116.035ZM281.666 113.59C282.73 113.59 283.603 112.594 283.59 113.59C283.586 114.065 283.379 114.519 283.015 114.852C282.651 115.185 282.16 115.369 281.65 115.365C281.14 115.361 280.652 115.169 280.294 114.83C279.937 114.491 279.738 114.034 279.743 113.559C279.743 112.588 280.596 113.608 281.666 113.645V113.59Z" fill="#F5F5F5"/>
<path d="M278.797 114.635C278.655 114.292 278.581 113.927 278.58 113.559C278.588 112.799 278.92 112.073 279.503 111.541C280.086 111.008 280.873 110.713 281.689 110.721C282.506 110.728 283.286 111.037 283.858 111.58C284.43 112.122 284.747 112.854 284.739 113.614C284.732 113.982 284.652 114.344 284.503 114.684C284.877 114.2 285.101 113.63 285.151 113.036C285.201 112.442 285.074 111.847 284.785 111.315C284.496 110.783 284.055 110.336 283.511 110.021C282.967 109.707 282.341 109.538 281.701 109.532C281.06 109.527 280.431 109.685 279.881 109.99C279.331 110.295 278.881 110.735 278.582 111.262C278.282 111.788 278.144 112.382 278.182 112.977C278.22 113.571 278.433 114.145 278.797 114.635Z" fill="#F0F0F0"/>
<path d="M129.304 206.237C131.667 208.437 142.232 209.476 142.232 209.476C142.232 209.476 131.667 210.515 129.304 212.715C126.94 214.915 125.817 224.755 125.817 224.755C125.817 224.755 124.708 214.922 122.338 212.715C119.967 210.509 109.403 209.476 109.403 209.476C109.403 209.476 119.974 208.437 122.338 206.237C124.701 204.037 125.817 194.197 125.817 194.197C125.817 194.197 126.934 204.03 129.304 206.237Z" fill="#F5F5F5"/>
<path d="M240.303 65.3931C239.121 66.4932 238.563 71.4131 238.563 71.4131C238.563 71.4131 238.005 66.4932 236.823 65.3931C235.641 64.293 230.356 63.7735 230.356 63.7735C230.356 63.7735 235.608 63.254 236.823 62.1539C238.038 61.0538 238.563 56.1339 238.563 56.1339C238.563 56.1339 239.121 61.0233 240.303 62.1539C241.484 63.2846 246.77 63.7735 246.77 63.7735C246.77 63.7735 241.465 64.293 240.303 65.3931Z" fill="#F0F0F0"/>
<path d="M100.875 207.275L78.739 209.441L79.2331 213.817L101.369 211.651L100.875 207.275Z" fill="#4ABDAF"/>
<path d="M101.909 210.266L78.4021 212.566L79.9518 226.29L103.459 223.991L101.909 210.266Z" fill="#4ABDAF"/>
<path opacity="0.5" d="M101.909 210.266L78.4021 212.566L79.9518 226.29L103.459 223.991L101.909 210.266Z" fill="white"/>
<g opacity="0.4">
<path d="M88.8464 214.555C88.7686 214.562 88.6932 214.584 88.6246 214.619C88.556 214.654 88.4955 214.701 88.4466 214.758C88.3978 214.815 88.3615 214.88 88.34 214.95C88.3184 215.02 88.312 215.094 88.3212 215.166L89.4702 225.36L90.6454 225.244L89.4964 215.05C89.4798 214.904 89.4023 214.771 89.2806 214.678C89.1589 214.585 89.0029 214.541 88.8464 214.555Z" fill="white"/>
<path d="M92.812 214.17C92.7342 214.178 92.6588 214.2 92.5902 214.234C92.5216 214.269 92.4611 214.317 92.4122 214.373C92.3633 214.43 92.3271 214.496 92.3056 214.566C92.284 214.636 92.2776 214.709 92.2867 214.781L93.4357 224.975L94.611 224.859L93.462 214.665C93.4555 214.592 93.4333 214.522 93.3969 214.457C93.3604 214.393 93.3103 214.336 93.2497 214.289C93.1891 214.243 93.1191 214.209 93.0439 214.188C92.9687 214.168 92.8898 214.162 92.812 214.17Z" fill="white"/>
<path d="M84.8809 214.946C84.8028 214.953 84.7269 214.974 84.6578 215.009C84.5888 215.044 84.5279 215.091 84.4789 215.148C84.4299 215.205 84.3937 215.271 84.3725 215.341C84.3513 215.411 84.3456 215.485 84.3556 215.557L85.5046 225.752L86.6799 225.635L85.5309 215.441C85.5235 215.369 85.5008 215.299 85.464 215.234C85.4273 215.17 85.3772 215.113 85.3168 215.067C85.2564 215.021 85.1867 214.987 85.1119 214.966C85.0371 214.945 84.9586 214.939 84.8809 214.946Z" fill="white"/>
<path d="M96.7776 213.779C96.6212 213.796 96.4783 213.869 96.3799 213.984C96.2816 214.098 96.2357 214.244 96.2524 214.39L97.4014 224.584L98.5766 224.468L97.4276 214.274C97.4202 214.202 97.3975 214.131 97.3608 214.067C97.324 214.003 97.274 213.946 97.2135 213.9C97.1531 213.854 97.0834 213.82 97.0086 213.799C96.9338 213.778 96.8553 213.771 96.7776 213.779Z" fill="white"/>
<path d="M100.743 213.394C100.666 213.401 100.59 213.423 100.522 213.458C100.453 213.493 100.392 213.54 100.344 213.597C100.295 213.654 100.258 213.719 100.237 213.789C100.215 213.859 100.209 213.933 100.218 214.005L101.374 224.199L102.549 224.083L101.393 213.877C101.385 213.805 101.362 213.736 101.325 213.672C101.288 213.609 101.237 213.554 101.177 213.509C101.116 213.464 101.047 213.431 100.972 213.411C100.898 213.391 100.82 213.385 100.743 213.394Z" fill="white"/>
<path d="M82.7273 226.014L81.5718 215.82C81.5636 215.748 81.5401 215.677 81.5026 215.614C81.4651 215.55 81.4143 215.493 81.3532 215.448C81.2922 215.402 81.222 215.369 81.1468 215.349C81.0716 215.329 80.9929 215.323 80.9152 215.331C80.7576 215.347 80.6131 215.42 80.5133 215.534C80.4136 215.649 80.3669 215.796 80.3834 215.942L81.5389 226.137L82.7273 226.014Z" fill="white"/>
</g>
<path d="M49.0652 94.5214L49.8596 101.562L74.054 207.154C74.3304 208.355 75.0738 209.419 76.1414 210.141C77.2091 210.863 78.5258 211.192 79.8384 211.065L100.192 209.073C101.505 208.946 102.72 208.37 103.603 207.456C104.486 206.543 104.974 205.357 104.972 204.128L105.05 96.1654L104.249 89.1187L49.0652 94.5214Z" fill="#4ABDAF"/>
<path opacity="0.8" d="M49.0652 94.5214L49.8596 101.562L74.054 207.154C74.3304 208.355 75.0738 209.419 76.1414 210.141C77.2091 210.863 78.5258 211.192 79.8384 211.065L100.192 209.073C101.505 208.946 102.72 208.37 103.603 207.456C104.486 206.543 104.974 205.357 104.972 204.128L105.05 96.1654L104.249 89.1187L49.0652 94.5214Z" fill="white"/>
<path opacity="0.2" d="M104.229 89.1205L49.0659 94.5175L49.7124 100.243L104.875 94.8462L104.229 89.1205Z" fill="white"/>
<path opacity="0.6" d="M56.1692 99.5881L56.3202 100.884L78.3282 205.51C78.8469 207.954 80.9545 209.678 83.2131 209.458L100.106 207.808C102.365 207.582 104.046 205.51 104.006 202.998L102.155 96.3672L102.011 95.0715L56.1692 99.5881Z" fill="white"/>
<g opacity="0.5">
<path d="M83.1867 95.4443C83.2645 95.4367 83.3399 95.4148 83.4085 95.3799C83.4771 95.345 83.5376 95.2977 83.5865 95.2409C83.6353 95.184 83.6716 95.1187 83.6931 95.0487C83.7147 94.9787 83.721 94.9055 83.7119 94.8331L83.2983 91.1661L82.123 91.2761L82.5367 94.9432C82.5517 95.0898 82.6285 95.2249 82.7504 95.3188C82.8722 95.4128 83.0291 95.4579 83.1867 95.4443Z" fill="white"/>
<path d="M87.1523 95.0532C87.2304 95.0464 87.3063 95.0251 87.3753 94.9904C87.4444 94.9557 87.5052 94.9085 87.5543 94.8514C87.6033 94.7944 87.6395 94.7287 87.6606 94.6584C87.6818 94.5881 87.6875 94.5145 87.6775 94.442L87.2639 90.775L86.0886 90.8911L86.5023 94.5582C86.5188 94.7037 86.5964 94.8372 86.7181 94.9299C86.8397 95.0226 86.9957 95.0669 87.1523 95.0532Z" fill="white"/>
<path d="M79.2209 95.8293C79.2986 95.8217 79.374 95.7998 79.4427 95.7649C79.5113 95.73 79.5718 95.6827 79.6207 95.6259C79.6695 95.569 79.7058 95.5037 79.7273 95.4337C79.7488 95.3637 79.7552 95.2905 79.7461 95.2182L79.3325 91.5511L78.1572 91.6673L78.5709 95.3343C78.5874 95.4798 78.665 95.6134 78.7867 95.706C78.9083 95.7987 79.0643 95.843 79.2209 95.8293Z" fill="white"/>
<path d="M91.1181 94.6987C91.2757 94.6833 91.4202 94.6103 91.52 94.4957C91.6197 94.381 91.6664 94.2342 91.6499 94.0875L91.2297 90.4205L90.0544 90.5305L90.4746 94.1975C90.4812 94.2699 90.5032 94.3403 90.5391 94.4047C90.5751 94.4691 90.6244 94.5263 90.6842 94.5729C90.744 94.6195 90.8132 94.6546 90.8876 94.6762C90.9621 94.6978 91.0404 94.7054 91.1181 94.6987Z" fill="white"/>
<path d="M75.2553 96.2206C75.4117 96.2037 75.5546 96.13 75.653 96.0155C75.7513 95.9011 75.7972 95.7551 75.7805 95.6094L75.3669 91.9424L74.1917 92.0524L74.6053 95.7194C74.6118 95.7923 74.634 95.8633 74.6704 95.9281C74.7067 95.993 74.7567 96.0504 74.8172 96.0971C74.8777 96.1437 74.9477 96.1787 75.0229 96.1999C75.0981 96.2211 75.1771 96.2281 75.2553 96.2206Z" fill="white"/>
<path d="M99.0558 93.8918C99.2122 93.8749 99.3551 93.8013 99.4535 93.6868C99.5518 93.5724 99.5977 93.4264 99.5811 93.2807L99.1674 89.6136L97.9922 89.7237L98.4058 93.3907C98.4124 93.4636 98.4345 93.5345 98.4709 93.5994C98.5073 93.6642 98.5572 93.7217 98.6177 93.7683C98.6783 93.815 98.7482 93.85 98.8234 93.8712C98.8986 93.8924 98.9776 93.8994 99.0558 93.8918Z" fill="white"/>
<path d="M95.0902 94.2771C95.168 94.2695 95.2434 94.2476 95.312 94.2127C95.3807 94.1778 95.4412 94.1305 95.49 94.0736C95.5389 94.0168 95.5751 93.9515 95.5967 93.8815C95.6182 93.8115 95.6246 93.7382 95.6155 93.6659L95.2019 89.9989L94.0266 90.115L94.4402 93.782C94.4476 93.8544 94.4703 93.9247 94.5071 93.9888C94.5438 94.053 94.5939 94.1097 94.6543 94.1558C94.7148 94.2018 94.7844 94.2362 94.8592 94.257C94.9341 94.2779 95.0126 94.2847 95.0902 94.2771Z" fill="white"/>
<path d="M71.2897 96.6057C71.3675 96.5981 71.4429 96.5762 71.5115 96.5413C71.5801 96.5064 71.6406 96.4591 71.6895 96.4023C71.7384 96.3454 71.7746 96.2801 71.7961 96.2101C71.8177 96.1401 71.8241 96.0668 71.815 95.9945L71.4013 92.3275L70.2261 92.4436L70.6397 96.1106C70.6471 96.183 70.6698 96.2533 70.7066 96.3175C70.7433 96.3816 70.7933 96.4383 70.8538 96.4844C70.9142 96.5304 70.9839 96.5648 71.0587 96.5857C71.1335 96.6065 71.212 96.6133 71.2897 96.6057Z" fill="white"/>
<path d="M51.455 98.5491C51.6114 98.5322 51.7543 98.4585 51.8527 98.344C51.951 98.2296 51.9969 98.0836 51.9802 97.9379L51.5666 94.2709L50.3914 94.3809L50.805 98.0479C50.8116 98.1208 50.8337 98.1918 50.8701 98.2566C50.9065 98.3215 50.9564 98.3789 51.0169 98.4256C51.0774 98.4722 51.1474 98.5072 51.2226 98.5284C51.2978 98.5496 51.3768 98.5566 51.455 98.5491Z" fill="white"/>
<path d="M55.4206 98.1578C55.4984 98.1502 55.5737 98.1283 55.6424 98.0934C55.711 98.0585 55.7715 98.0112 55.8204 97.9544C55.8692 97.8975 55.9055 97.8322 55.927 97.7622C55.9485 97.6922 55.9549 97.619 55.9458 97.5466L55.5322 93.8796L54.3569 93.9958L54.7706 97.6628C54.7779 97.7351 54.8007 97.8054 54.8374 97.8696C54.8742 97.9337 54.9242 97.9905 54.9846 98.0365C55.0451 98.0825 55.1147 98.117 55.1896 98.1378C55.2644 98.1586 55.3429 98.1654 55.4206 98.1578Z" fill="white"/>
<path d="M67.3175 96.9966C67.4751 96.9812 67.6197 96.9081 67.7194 96.7935C67.8192 96.6789 67.8659 96.5321 67.8494 96.3854L67.4292 92.7184L66.2539 92.8284L66.6741 96.4954C66.6807 96.5677 66.7026 96.6382 66.7386 96.7026C66.7746 96.767 66.8239 96.8241 66.8837 96.8707C66.9435 96.9173 67.0126 96.9524 67.0871 96.974C67.1616 96.9956 67.2399 97.0033 67.3175 96.9966Z" fill="white"/>
<path d="M101.958 89.3449L102.372 93.0119C102.38 93.0837 102.403 93.1534 102.44 93.2168C102.477 93.2802 102.528 93.3363 102.588 93.3817C102.648 93.4271 102.718 93.461 102.792 93.4814C102.866 93.5018 102.944 93.5084 103.022 93.5008C103.099 93.4932 103.174 93.4715 103.242 93.437C103.31 93.4024 103.37 93.3557 103.419 93.2996C103.468 93.2434 103.504 93.1788 103.526 93.1095C103.548 93.0402 103.555 92.9676 103.547 92.8958L103.133 89.2288L101.958 89.3449Z" fill="white"/>
<path d="M59.3861 97.7546C59.4639 97.747 59.5393 97.7251 59.608 97.6902C59.6766 97.6553 59.7371 97.608 59.7859 97.5512C59.8348 97.4943 59.871 97.429 59.8926 97.359C59.9141 97.289 59.9205 97.2158 59.9114 97.1435L59.4978 93.4764L58.3225 93.5864L58.7361 97.2535C58.7511 97.4001 58.828 97.5352 58.9498 97.6292C59.0717 97.7231 59.2286 97.7682 59.3861 97.7546Z" fill="white"/>
<path d="M63.352 97.3816C63.4301 97.3748 63.506 97.3534 63.575 97.3188C63.6441 97.2841 63.7049 97.2368 63.754 97.1798C63.803 97.1227 63.8392 97.0571 63.8603 96.9868C63.8815 96.9164 63.8873 96.8428 63.8772 96.7704L63.4636 93.1034L62.2883 93.2195L62.702 96.8865C62.7186 97.0321 62.7961 97.1656 62.9178 97.2583C63.0394 97.351 63.1954 97.3953 63.352 97.3816Z" fill="white"/>
</g>
<path d="M104.965 188.409V153.328C95.3662 142.327 65.9718 134.443 54.9087 123.699L64.0809 163.639C73.4107 172.568 98.4455 179.04 104.965 188.409Z" fill="#4ABDAF"/>
<path d="M83.8763 159.421C83.8763 159.421 85.15 159.324 85.8 162.239C86.45 165.154 86.4566 167.299 87.448 167.33C88.4394 167.36 90.4748 164.274 90.2253 161.548C89.9758 158.822 89.8445 156.317 90.2253 154.624C90.6849 152.656 92.0768 149.337 89.4177 147.497C87.0934 145.884 84.6379 148.274 82.6222 148.469H82.4844C80.4687 148.665 77.5339 146.807 75.6167 148.836C73.4303 151.146 75.5313 154.129 76.4243 155.962C77.1925 157.545 77.6323 160.02 77.9869 162.728C78.3414 165.435 81.0596 168.063 81.9985 167.849C82.9374 167.635 82.4844 165.533 82.4712 162.55C82.4581 159.568 83.7187 159.421 83.7187 159.421H83.8763Z" fill="white"/>
<path d="M101.354 152.839C100.927 151.543 97.1387 151.397 91.8205 152.228C91.7352 152.662 91.6367 153.078 91.5317 153.45C93.5539 153.322 94.8933 153.542 95.0968 154.147C95.5236 155.437 90.6847 157.985 84.2832 159.837C77.8817 161.689 72.3403 162.141 71.9069 160.852C71.6509 160.075 73.2989 158.841 76.0499 157.582C75.9448 157.233 75.8266 156.91 75.7019 156.61C69.4973 158.994 65.4332 161.561 65.9322 163.046C66.5888 165.02 75.0519 164.323 84.8347 161.493C94.6175 158.664 102.017 154.807 101.354 152.839Z" fill="#4ABDAF"/>
<path opacity="0.6" d="M101.354 152.839C100.927 151.543 97.1387 151.397 91.8205 152.228C91.7352 152.662 91.6367 153.078 91.5317 153.45C93.5539 153.322 94.8933 153.542 95.0968 154.147C95.5236 155.437 90.6847 157.985 84.2832 159.837C77.8817 161.689 72.3403 162.141 71.9069 160.852C71.6509 160.075 73.2989 158.841 76.0499 157.582C75.9448 157.233 75.8266 156.91 75.7019 156.61C69.4973 158.994 65.4332 161.561 65.9322 163.046C66.5888 165.02 75.0519 164.323 84.8347 161.493C94.6175 158.664 102.017 154.807 101.354 152.839Z" fill="white"/>
<path d="M239.357 75.563L237.854 71.4743C239.215 69.0399 239.589 66.2302 238.905 63.5603C238.222 60.8904 236.528 58.5393 234.133 56.9379C231.738 55.3366 228.804 54.5923 225.868 54.8416C222.931 55.0909 220.19 56.317 218.146 58.2952C216.102 60.2733 214.893 62.871 214.739 65.6119C214.586 68.3528 215.499 71.0533 217.312 73.2182C219.124 75.3832 221.714 76.8676 224.606 77.3993C227.499 77.931 230.501 77.4744 233.061 76.1131L237.348 77.4699C237.632 77.5635 237.939 77.5796 238.233 77.5163C238.527 77.4531 238.795 77.313 239.006 77.1127C239.217 76.9124 239.362 76.6601 239.424 76.3856C239.487 76.111 239.463 75.8257 239.357 75.563Z" fill="#4ABDAF"/>
<path opacity="0.6" d="M239.357 75.563L237.854 71.4743C239.215 69.0399 239.589 66.2302 238.905 63.5603C238.222 60.8904 236.528 58.5393 234.133 56.9379C231.738 55.3366 228.804 54.5923 225.868 54.8416C222.931 55.0909 220.19 56.317 218.146 58.2952C216.102 60.2733 214.893 62.871 214.739 65.6119C214.586 68.3528 215.499 71.0533 217.312 73.2182C219.124 75.3832 221.714 76.8676 224.606 77.3993C227.499 77.931 230.501 77.4744 233.061 76.1131L237.348 77.4699C237.632 77.5635 237.939 77.5796 238.233 77.5163C238.527 77.4531 238.795 77.313 239.006 77.1127C239.217 76.9124 239.362 76.6601 239.424 76.3856C239.487 76.111 239.463 75.8257 239.357 75.563Z" fill="white"/>
<path d="M227.172 68.4184C227.172 68.4184 228.097 68.4184 228.327 70.582C228.557 72.7455 228.406 74.249 229.102 74.3651C229.798 74.4812 231.531 72.3727 231.571 70.3986C231.523 68.7197 231.717 67.0423 232.148 65.4115C232.641 64.0302 233.915 61.7445 232.148 60.2226C230.606 58.8964 228.642 60.4427 227.172 60.4427H227.073C225.602 60.4427 223.639 58.8964 222.096 60.2226C220.33 61.7322 221.604 64.0302 222.096 65.4115C222.528 67.0423 222.722 68.7197 222.674 70.3986C222.714 72.3727 224.454 74.4568 225.143 74.3651C225.832 74.2734 225.688 72.7333 225.918 70.582C226.147 68.4306 227.073 68.4184 227.073 68.4184H227.172Z" fill="white"/>
<g opacity="0.9">
<path d="M231.82 70.3924L225.78 64.7696L227.579 63.095L231.82 67.0431L239.515 59.8802L241.307 61.5548L231.82 70.3924Z" fill="#4ABDAF"/>
</g>
<path d="M225.753 103.206C219.862 102.612 214.018 101.669 208.256 100.383C192.493 96.9113 177.543 90.791 164.141 82.3225C150.739 90.791 135.79 96.9113 120.027 100.383C114.265 101.669 108.42 102.612 102.529 103.206C102.529 103.463 102.529 103.707 102.529 103.964C102.529 154.392 126.822 189.57 164.168 217.085C201.5 189.583 225.806 154.392 225.806 103.964C225.78 103.707 225.753 103.463 225.753 103.206Z" fill="#4ABDAF"/>
<path d="M218.072 109.428L217.96 111.524C215.99 149.612 199.432 179.834 165.796 206.628L164.141 207.948L162.487 206.628C128.844 179.828 112.273 149.606 110.303 111.524L110.191 109.434L112.411 109.079C115.582 108.572 118.74 107.967 121.793 107.283C136.273 104.094 150.122 98.7971 162.828 91.5878L164.141 90.83L165.454 91.5878C178.148 98.7935 191.983 104.09 206.45 107.283C209.523 107.973 212.681 108.572 215.833 109.079L218.072 109.428Z" fill="#4ABDAF"/>
<path opacity="0.5" d="M208.256 100.383C192.493 96.9113 177.543 90.791 164.141 82.3225V90.83L165.454 91.5878C178.148 98.7936 191.983 104.09 206.45 107.283C209.523 107.973 212.681 108.572 215.832 109.079L218.052 109.428L217.947 111.524C215.977 149.612 199.412 179.834 165.776 206.628L164.141 207.948V217.085C201.473 189.583 225.779 154.392 225.779 103.964C225.779 103.707 225.779 103.463 225.779 103.206C219.88 102.613 214.026 101.67 208.256 100.383Z" fill="white"/>
<path opacity="0.3" d="M218.072 109.428L217.96 111.524C215.99 149.612 199.432 179.834 165.796 206.628L164.141 207.948L162.487 206.628C128.844 179.828 112.273 149.606 110.303 111.524L110.191 109.434L112.411 109.079C115.582 108.572 118.74 107.967 121.793 107.283C136.273 104.094 150.122 98.7971 162.828 91.5878L164.141 90.83L165.454 91.5878C178.148 98.7935 191.983 104.09 206.45 107.283C209.523 107.973 212.681 108.572 215.833 109.079L218.072 109.428Z" fill="white"/>
<path d="M163.924 92.7489C163.381 92.7487 162.844 92.8484 162.342 93.0423C162.349 92.9446 162.349 92.8466 162.342 92.7489C162.342 91.8952 162.037 91.0657 161.476 90.3901C160.916 89.7145 160.13 89.2308 159.243 89.0147C159.546 88.4739 159.708 87.874 159.715 87.264C159.722 86.654 159.573 86.0511 159.282 85.5046C158.991 84.9582 158.565 84.4836 158.039 84.1196C157.513 83.7556 156.902 83.5125 156.256 83.4102C155.948 82.8948 155.53 82.4434 155.027 82.0838C154.525 81.7242 153.949 81.464 153.335 81.3192C152.721 81.1744 152.081 81.148 151.455 81.2417C150.83 81.3354 150.231 81.5471 149.697 81.864C148.542 80.9212 147.171 80.2374 145.688 79.8651C144.205 79.4928 142.651 79.442 141.143 79.7164C139.636 79.9909 138.217 80.5834 136.994 81.4483C135.771 82.3133 134.778 83.4277 134.09 84.7059C133.736 84.6247 133.372 84.5836 133.007 84.5837C132.213 84.5889 131.434 84.7838 130.744 85.1498C130.054 85.5158 129.477 86.0406 129.067 86.6739C128.369 86.0081 127.436 85.5991 126.44 85.5217C125.443 85.4443 124.451 85.7038 123.643 86.2526C122.836 86.8015 122.268 87.6028 122.044 88.5097C121.82 89.4166 121.954 90.3684 122.423 91.1904C121.819 91.2639 121.237 91.4475 120.71 91.7306C120.183 92.0138 119.721 92.391 119.35 92.8406C118.864 92.174 118.167 91.665 117.356 91.3844C116.544 91.1038 115.659 91.0656 114.824 91.275C113.988 91.4845 113.243 91.9313 112.693 92.5531C112.143 93.175 111.814 93.9411 111.754 94.7447C111.693 95.5484 111.903 96.3497 112.354 97.0371C112.805 97.7246 113.476 98.2639 114.272 98.5803C115.068 98.8966 115.95 98.974 116.795 98.8019C117.641 98.6298 118.408 98.2166 118.989 97.6199C119.359 98.2355 119.885 98.7575 120.521 99.1401C121.157 99.5227 121.885 99.7543 122.639 99.8146C123.394 99.8749 124.153 99.7621 124.851 99.486C125.548 99.21 126.161 98.7791 126.638 98.2311C127.082 98.7439 127.646 99.1554 128.287 99.4341C128.927 99.7128 129.628 99.8512 130.336 99.8388C131.043 99.8264 131.738 99.6635 132.367 99.3626C132.996 99.0617 133.543 98.6307 133.965 98.1027C135.319 99.191 137.038 99.8044 138.826 99.8368C140.614 99.8691 142.357 99.3184 143.755 98.28C144.096 98.28 144.411 98.2189 144.766 98.17C145.966 99.1077 147.446 99.6802 149.006 99.8103C150.566 99.9403 152.132 99.6217 153.492 98.8973C153.887 99.4236 154.417 99.8499 155.034 100.137C155.651 100.425 156.336 100.565 157.025 100.544C157.715 100.523 158.388 100.343 158.984 100.019C159.58 99.6954 160.08 99.2384 160.438 98.6895C160.816 99.2655 161.35 99.7395 161.985 100.064C162.621 100.389 163.337 100.553 164.062 100.541C164.787 100.528 165.496 100.339 166.119 99.9924C166.741 99.6458 167.255 99.1536 167.61 98.5648C167.964 97.976 168.147 97.311 168.141 96.6359C168.134 95.9609 167.937 95.2993 167.571 94.7168C167.204 94.1344 166.68 93.6513 166.051 93.3158C165.421 92.9802 164.709 92.8037 163.984 92.8039L163.924 92.7489Z" fill="#4ABDAF"/>
<path opacity="0.9" d="M163.924 92.7489C163.381 92.7487 162.844 92.8484 162.342 93.0423C162.349 92.9446 162.349 92.8466 162.342 92.7489C162.342 91.8952 162.037 91.0657 161.476 90.3901C160.916 89.7145 160.13 89.2308 159.243 89.0147C159.546 88.4739 159.708 87.874 159.715 87.264C159.722 86.654 159.573 86.0511 159.282 85.5046C158.991 84.9582 158.565 84.4836 158.039 84.1196C157.513 83.7556 156.902 83.5125 156.256 83.4102C155.948 82.8948 155.53 82.4434 155.027 82.0838C154.525 81.7242 153.949 81.464 153.335 81.3192C152.721 81.1744 152.081 81.148 151.455 81.2417C150.83 81.3354 150.231 81.5471 149.697 81.864C148.542 80.9212 147.171 80.2374 145.688 79.8651C144.205 79.4928 142.651 79.442 141.143 79.7164C139.636 79.9909 138.217 80.5834 136.994 81.4483C135.771 82.3133 134.778 83.4277 134.09 84.7059C133.736 84.6247 133.372 84.5836 133.007 84.5837C132.213 84.5889 131.434 84.7838 130.744 85.1498C130.054 85.5158 129.477 86.0406 129.067 86.6739C128.369 86.0081 127.436 85.5991 126.44 85.5217C125.443 85.4443 124.451 85.7038 123.643 86.2526C122.836 86.8015 122.268 87.6028 122.044 88.5097C121.82 89.4166 121.954 90.3684 122.423 91.1904C121.819 91.2639 121.237 91.4475 120.71 91.7306C120.183 92.0138 119.721 92.391 119.35 92.8406C118.864 92.174 118.167 91.665 117.356 91.3844C116.544 91.1038 115.659 91.0656 114.824 91.275C113.988 91.4845 113.243 91.9313 112.693 92.5531C112.143 93.175 111.814 93.9411 111.754 94.7447C111.693 95.5484 111.903 96.3497 112.354 97.0371C112.805 97.7246 113.476 98.2639 114.272 98.5803C115.068 98.8966 115.95 98.974 116.795 98.8019C117.641 98.6298 118.408 98.2166 118.989 97.6199C119.359 98.2355 119.885 98.7575 120.521 99.1401C121.157 99.5227 121.885 99.7543 122.639 99.8146C123.394 99.8749 124.153 99.7621 124.851 99.486C125.548 99.21 126.161 98.7791 126.638 98.2311C127.082 98.7439 127.646 99.1554 128.287 99.4341C128.927 99.7128 129.628 99.8512 130.336 99.8388C131.043 99.8264 131.738 99.6635 132.367 99.3626C132.996 99.0617 133.543 98.6307 133.965 98.1027C135.319 99.191 137.038 99.8044 138.826 99.8368C140.614 99.8691 142.357 99.3184 143.755 98.28C144.096 98.28 144.411 98.2189 144.766 98.17C145.966 99.1077 147.446 99.6802 149.006 99.8103C150.566 99.9403 152.132 99.6217 153.492 98.8973C153.887 99.4236 154.417 99.8499 155.034 100.137C155.651 100.425 156.336 100.565 157.025 100.544C157.715 100.523 158.388 100.343 158.984 100.019C159.58 99.6954 160.08 99.2384 160.438 98.6895C160.816 99.2655 161.35 99.7395 161.985 100.064C162.621 100.389 163.337 100.553 164.062 100.541C164.787 100.528 165.496 100.339 166.119 99.9924C166.741 99.6458 167.255 99.1536 167.61 98.5648C167.964 97.976 168.147 97.311 168.141 96.6359C168.134 95.9609 167.937 95.2993 167.571 94.7168C167.204 94.1344 166.68 93.6513 166.051 93.3158C165.421 92.9802 164.709 92.8037 163.984 92.8039L163.924 92.7489Z" fill="white"/>
<path d="M159.545 99.1173C158.825 99.1165 158.116 98.9545 157.477 98.645C156.838 98.3355 156.289 97.8875 155.875 97.3388C154.399 98.1229 152.7 98.466 151.008 98.3217C149.316 98.1774 147.712 97.5527 146.414 96.5321C146.059 96.5871 145.692 96.6238 145.324 96.6482C143.815 97.7648 141.935 98.3563 140.007 98.3206C138.08 98.2848 136.226 97.6242 134.766 96.4526C134.31 97.0169 133.721 97.4773 133.045 97.7989C132.37 98.1205 131.624 98.2949 130.865 98.309C130.106 98.3232 129.354 98.1766 128.665 97.8804C127.976 97.5842 127.368 97.1462 126.888 96.5993C126.376 97.1898 125.717 97.6551 124.968 97.955C124.22 98.2548 123.404 98.38 122.591 98.3198C121.779 98.2596 120.994 98.0157 120.306 97.6094C119.617 97.2031 119.046 96.6466 118.641 95.9881C118.201 96.441 117.66 96.7983 117.055 97.0345C116.45 97.2708 115.796 97.3802 115.141 97.3551C114.486 97.3301 113.844 97.171 113.262 96.8894C112.68 96.6077 112.172 96.2103 111.773 95.7253C111.925 96.4277 112.283 97.077 112.808 97.6011C113.333 98.1251 114.003 98.5032 114.745 98.6933C115.487 98.8834 116.271 98.878 117.01 98.6777C117.749 98.4774 118.414 98.0901 118.93 97.5588C119.299 98.1745 119.825 98.6964 120.462 99.079C121.098 99.4617 121.825 99.6932 122.58 99.7535C123.335 99.8139 124.094 99.701 124.791 99.425C125.488 99.1489 126.102 98.718 126.579 98.17C127.023 98.6828 127.587 99.0944 128.227 99.373C128.868 99.6517 129.569 99.7902 130.276 99.7778C130.984 99.7654 131.678 99.6025 132.308 99.3016C132.937 99.0006 133.484 98.5697 133.906 98.0417C135.259 99.1299 136.979 99.7433 138.767 99.7757C140.554 99.8081 142.298 99.2573 143.696 98.2189C144.037 98.2189 144.352 98.1578 144.707 98.1089C145.906 99.0466 147.386 99.6192 148.947 99.7492C150.507 99.8793 152.073 99.5606 153.432 98.8362C153.798 99.3254 154.28 99.7289 154.842 100.015C155.403 100.301 156.028 100.462 156.668 100.485C157.308 100.508 157.944 100.393 158.528 100.148C159.111 99.9034 159.626 99.5359 160.031 99.0746C159.87 99.097 159.708 99.1113 159.545 99.1173Z" fill="#4ABDAF"/>
<path d="M163.327 97.1432C162.716 98.053 161.752 98.7093 160.635 98.9767C161.012 99.436 161.496 99.8106 162.05 100.073C162.603 100.334 163.213 100.477 163.834 100.49C164.455 100.503 165.071 100.386 165.637 100.147C166.203 99.9084 166.704 99.5544 167.102 99.1112C166.346 99.1056 165.603 98.9223 164.943 98.5783C164.283 98.2343 163.727 97.7406 163.327 97.1432Z" fill="#4ABDAF"/>
<g opacity="0.7">
<path d="M159.545 99.1173C158.825 99.1165 158.116 98.9545 157.477 98.645C156.838 98.3355 156.289 97.8875 155.875 97.3388C154.399 98.1229 152.7 98.466 151.008 98.3217C149.316 98.1774 147.712 97.5527 146.414 96.5321C146.059 96.5871 145.692 96.6238 145.324 96.6482C143.815 97.7648 141.935 98.3563 140.007 98.3206C138.08 98.2848 136.226 97.6242 134.766 96.4526C134.31 97.0169 133.721 97.4773 133.045 97.7989C132.37 98.1205 131.624 98.2949 130.865 98.309C130.106 98.3232 129.354 98.1766 128.665 97.8804C127.976 97.5842 127.368 97.1462 126.888 96.5993C126.376 97.1898 125.717 97.6551 124.968 97.955C124.22 98.2548 123.404 98.38 122.591 98.3198C121.779 98.2596 120.994 98.0157 120.306 97.6094C119.617 97.2031 119.046 96.6466 118.641 95.9881C118.201 96.441 117.66 96.7983 117.055 97.0345C116.45 97.2708 115.796 97.3802 115.141 97.3551C114.486 97.3301 113.844 97.171 113.262 96.8894C112.68 96.6077 112.172 96.2103 111.773 95.7253C111.925 96.4277 112.283 97.077 112.808 97.6011C113.333 98.1251 114.003 98.5032 114.745 98.6933C115.487 98.8834 116.271 98.878 117.01 98.6777C117.749 98.4774 118.414 98.0901 118.93 97.5588C119.299 98.1745 119.825 98.6964 120.462 99.079C121.098 99.4617 121.825 99.6932 122.58 99.7535C123.335 99.8139 124.094 99.701 124.791 99.425C125.488 99.1489 126.102 98.718 126.579 98.17C127.023 98.6828 127.587 99.0944 128.227 99.373C128.868 99.6517 129.569 99.7902 130.276 99.7778C130.984 99.7654 131.678 99.6025 132.308 99.3016C132.937 99.0006 133.484 98.5697 133.906 98.0417C135.259 99.1299 136.979 99.7433 138.767 99.7757C140.554 99.8081 142.298 99.2573 143.696 98.2189C144.037 98.2189 144.352 98.1578 144.707 98.1089C145.906 99.0466 147.386 99.6192 148.947 99.7492C150.507 99.8793 152.073 99.5606 153.432 98.8362C153.798 99.3254 154.28 99.7289 154.842 100.015C155.403 100.301 156.028 100.462 156.668 100.485C157.308 100.508 157.944 100.393 158.528 100.148C159.111 99.9034 159.626 99.5359 160.031 99.0746C159.87 99.097 159.708 99.1113 159.545 99.1173Z" fill="white"/>
<path d="M163.327 97.1432C162.715 98.053 161.751 98.7093 160.635 98.9767C161.012 99.436 161.495 99.8106 162.049 100.073C162.603 100.334 163.213 100.477 163.834 100.49C164.455 100.503 165.071 100.386 165.636 100.147C166.202 99.9084 166.703 99.5544 167.102 99.1112C166.346 99.1056 165.603 98.9223 164.943 98.5783C164.283 98.2343 163.727 97.7406 163.327 97.1432Z" fill="white"/>
</g>
<path d="M182.341 96.367C182.769 96.368 183.193 96.4469 183.588 96.5993C183.588 96.526 183.588 96.4465 183.588 96.367C183.589 95.6924 183.83 95.0369 184.273 94.503C184.716 93.969 185.336 93.5865 186.037 93.4151C185.797 92.988 185.668 92.5139 185.662 92.0317C185.657 91.5495 185.773 91.0728 186.003 90.6406C186.233 90.2085 186.57 89.8331 186.985 89.5452C187.401 89.2573 187.884 89.065 188.394 88.9841C188.638 88.5687 188.972 88.2048 189.375 87.9153C189.777 87.6258 190.24 87.4171 190.733 87.3023C191.227 87.1874 191.74 87.169 192.242 87.2481C192.743 87.3272 193.222 87.5021 193.647 87.7618C194.561 87.0173 195.645 86.4774 196.818 86.1837C197.99 85.89 199.22 85.8501 200.411 86.0673C201.603 86.2844 202.726 86.7528 203.693 87.4364C204.66 88.12 205.446 89.0006 205.99 90.0109C206.27 89.9468 206.556 89.914 206.844 89.9131C207.476 89.9124 208.097 90.0641 208.647 90.3533C209.197 90.6425 209.657 91.0593 209.982 91.5633C210.533 91.0296 211.273 90.6999 212.064 90.6356C212.856 90.5712 213.646 90.7764 214.288 91.2131C214.93 91.6498 215.379 92.2884 215.553 93.0103C215.727 93.7323 215.614 94.4885 215.235 95.1386C216.199 95.2579 217.074 95.7255 217.671 96.4404C218.056 95.9166 218.606 95.5174 219.246 95.2982C219.886 95.0789 220.583 95.0506 221.241 95.217C221.899 95.3834 222.485 95.7363 222.917 96.2268C223.35 96.7173 223.608 97.321 223.655 97.9541C223.702 98.5872 223.537 99.2183 223.181 99.7597C222.825 100.301 222.298 100.726 221.671 100.976C221.044 101.225 220.349 101.287 219.683 101.152C219.017 101.017 218.412 100.693 217.953 100.224C217.658 100.708 217.24 101.117 216.735 101.416C216.231 101.716 215.656 101.896 215.06 101.941C214.464 101.986 213.865 101.895 213.315 101.676C212.765 101.456 212.282 101.115 211.906 100.682C211.554 101.087 211.108 101.412 210.601 101.632C210.094 101.852 209.539 101.961 208.98 101.951C208.421 101.941 207.871 101.812 207.373 101.574C206.876 101.336 206.443 100.995 206.109 100.578C205.04 101.441 203.68 101.927 202.265 101.953C200.851 101.978 199.472 101.542 198.368 100.719C198.099 100.706 197.831 100.677 197.567 100.633C196.618 101.375 195.448 101.829 194.214 101.931C192.979 102.034 191.741 101.781 190.666 101.207C190.353 101.623 189.935 101.959 189.448 102.186C188.96 102.413 188.42 102.524 187.876 102.508C187.331 102.493 186.799 102.351 186.328 102.096C185.857 101.841 185.462 101.481 185.177 101.049C184.877 101.502 184.455 101.875 183.953 102.13C183.45 102.385 182.885 102.514 182.313 102.503C181.74 102.491 181.181 102.341 180.691 102.067C180.2 101.793 179.795 101.404 179.516 100.939C179.236 100.473 179.093 99.9486 179.099 99.4159C179.104 98.8831 179.26 98.3611 179.549 97.9015C179.839 97.442 180.252 97.0608 180.749 96.796C181.246 96.5311 181.808 96.3916 182.38 96.3915L182.341 96.367Z" fill="#4ABDAF"/>
<path opacity="0.9" d="M182.341 96.367C182.769 96.368 183.193 96.4469 183.588 96.5993C183.588 96.526 183.588 96.4465 183.588 96.367C183.589 95.6924 183.83 95.0369 184.273 94.503C184.716 93.969 185.336 93.5865 186.037 93.4151C185.797 92.988 185.668 92.5139 185.662 92.0317C185.657 91.5495 185.773 91.0728 186.003 90.6406C186.233 90.2085 186.57 89.8331 186.985 89.5452C187.401 89.2573 187.884 89.065 188.394 88.9841C188.638 88.5687 188.972 88.2048 189.375 87.9153C189.777 87.6258 190.24 87.4171 190.733 87.3023C191.227 87.1874 191.74 87.169 192.242 87.2481C192.743 87.3272 193.222 87.5021 193.647 87.7618C194.561 87.0173 195.645 86.4774 196.818 86.1837C197.99 85.89 199.22 85.8501 200.411 86.0673C201.603 86.2844 202.726 86.7528 203.693 87.4364C204.66 88.12 205.446 89.0006 205.99 90.0109C206.27 89.9468 206.556 89.914 206.844 89.9131C207.476 89.9124 208.097 90.0641 208.647 90.3533C209.197 90.6425 209.657 91.0593 209.982 91.5633C210.533 91.0296 211.273 90.6999 212.064 90.6356C212.856 90.5712 213.646 90.7764 214.288 91.2131C214.93 91.6498 215.379 92.2884 215.553 93.0103C215.727 93.7323 215.614 94.4885 215.235 95.1386C216.199 95.2579 217.074 95.7255 217.671 96.4404C218.056 95.9166 218.606 95.5174 219.246 95.2982C219.886 95.0789 220.583 95.0506 221.241 95.217C221.899 95.3834 222.485 95.7363 222.917 96.2268C223.35 96.7173 223.608 97.321 223.655 97.9541C223.702 98.5872 223.537 99.2183 223.181 99.7597C222.825 100.301 222.298 100.726 221.671 100.976C221.044 101.225 220.349 101.287 219.683 101.152C219.017 101.017 218.412 100.693 217.953 100.224C217.658 100.708 217.24 101.117 216.735 101.416C216.231 101.716 215.656 101.896 215.06 101.941C214.464 101.986 213.865 101.895 213.315 101.676C212.765 101.456 212.282 101.115 211.906 100.682C211.554 101.087 211.108 101.412 210.601 101.632C210.094 101.852 209.539 101.961 208.98 101.951C208.421 101.941 207.871 101.812 207.373 101.574C206.876 101.336 206.443 100.995 206.109 100.578C205.04 101.441 203.68 101.927 202.265 101.953C200.851 101.978 199.472 101.542 198.368 100.719C198.099 100.706 197.831 100.677 197.567 100.633C196.618 101.375 195.448 101.829 194.214 101.931C192.979 102.034 191.741 101.781 190.666 101.207C190.353 101.623 189.935 101.959 189.448 102.186C188.96 102.413 188.42 102.524 187.876 102.508C187.331 102.493 186.799 102.351 186.328 102.096C185.857 101.841 185.462 101.481 185.177 101.049C184.877 101.502 184.455 101.875 183.953 102.13C183.45 102.385 182.885 102.514 182.313 102.503C181.74 102.491 181.181 102.341 180.691 102.067C180.2 101.793 179.795 101.404 179.516 100.939C179.236 100.473 179.093 99.9486 179.099 99.4159C179.104 98.8831 179.26 98.3611 179.549 97.9015C179.839 97.442 180.252 97.0608 180.749 96.796C181.246 96.5311 181.808 96.3916 182.38 96.3915L182.341 96.367Z" fill="white"/>
<path d="M185.808 101.421C186.377 101.422 186.939 101.294 187.444 101.049C187.949 100.805 188.383 100.45 188.71 100.016C189.867 100.634 191.2 100.907 192.529 100.798C193.858 100.688 195.119 100.202 196.142 99.4046C196.428 99.4535 196.718 99.4842 197.009 99.4962C198.199 100.383 199.685 100.854 201.21 100.827C202.734 100.8 204.2 100.277 205.354 99.3496C205.712 99.8012 206.178 100.17 206.714 100.428C207.251 100.685 207.843 100.825 208.447 100.836C209.05 100.846 209.648 100.728 210.194 100.489C210.741 100.251 211.221 99.8983 211.598 99.4596C212.001 99.9312 212.522 100.303 213.117 100.542C213.711 100.782 214.359 100.881 215.005 100.831C215.65 100.782 216.272 100.585 216.816 100.258C217.36 99.9317 217.809 99.4852 218.124 98.9584C218.47 99.3178 218.898 99.6014 219.375 99.7891C219.853 99.9767 220.37 100.064 220.888 100.044C221.406 100.024 221.913 99.8978 222.373 99.6742C222.833 99.4506 223.234 99.1352 223.547 98.7506C223.425 99.3016 223.142 99.8104 222.729 100.221C222.316 100.632 221.789 100.928 221.206 101.078C220.624 101.228 220.008 101.225 219.427 101.07C218.846 100.915 218.322 100.614 217.914 100.199C217.618 100.683 217.2 101.093 216.696 101.392C216.192 101.691 215.617 101.871 215.021 101.917C214.424 101.962 213.825 101.871 213.276 101.651C212.726 101.432 212.242 101.091 211.867 100.657C211.515 101.063 211.069 101.388 210.562 101.608C210.055 101.828 209.5 101.937 208.941 101.927C208.381 101.917 207.832 101.788 207.334 101.55C206.836 101.312 206.404 100.971 206.069 100.554C205 101.416 203.641 101.903 202.226 101.928C200.812 101.954 199.433 101.517 198.328 100.694C198.06 100.681 197.792 100.652 197.527 100.609C196.579 101.351 195.409 101.804 194.174 101.907C192.94 102.01 191.702 101.757 190.627 101.183C190.337 101.568 189.956 101.885 189.513 102.11C189.069 102.335 188.577 102.462 188.072 102.481C187.568 102.5 187.066 102.41 186.605 102.219C186.144 102.028 185.736 101.74 185.414 101.379C185.552 101.421 185.69 101.421 185.808 101.421Z" fill="#4ABDAF"/>
<path d="M182.807 99.8202C183.286 100.548 184.048 101.076 184.934 101.293C184.635 101.654 184.253 101.948 183.816 102.154C183.378 102.36 182.897 102.471 182.407 102.481C181.917 102.491 181.431 102.399 180.985 102.212C180.538 102.024 180.142 101.746 179.826 101.397C180.426 101.391 181.014 101.243 181.536 100.967C182.057 100.691 182.495 100.297 182.807 99.8202Z" fill="#4ABDAF"/>
<g opacity="0.7">
<path d="M185.808 101.421C186.377 101.422 186.939 101.294 187.444 101.049C187.949 100.805 188.383 100.45 188.71 100.016C189.867 100.634 191.2 100.907 192.529 100.798C193.858 100.688 195.119 100.202 196.142 99.4046C196.428 99.4535 196.718 99.4842 197.009 99.4962C198.199 100.383 199.685 100.854 201.21 100.827C202.734 100.8 204.2 100.277 205.354 99.3496C205.712 99.8012 206.178 100.17 206.714 100.428C207.251 100.685 207.843 100.825 208.447 100.836C209.05 100.846 209.648 100.728 210.194 100.489C210.741 100.251 211.221 99.8983 211.598 99.4596C212.001 99.9312 212.522 100.303 213.117 100.542C213.711 100.782 214.359 100.881 215.005 100.831C215.65 100.782 216.272 100.585 216.816 100.258C217.36 99.9317 217.809 99.4852 218.124 98.9584C218.47 99.3178 218.898 99.6014 219.375 99.7891C219.853 99.9767 220.37 100.064 220.888 100.044C221.406 100.024 221.913 99.8978 222.373 99.6742C222.833 99.4506 223.234 99.1352 223.547 98.7506C223.425 99.3016 223.142 99.8104 222.729 100.221C222.316 100.632 221.789 100.928 221.206 101.078C220.624 101.228 220.008 101.225 219.427 101.07C218.846 100.915 218.322 100.614 217.914 100.199C217.618 100.683 217.2 101.093 216.696 101.392C216.192 101.691 215.617 101.871 215.021 101.917C214.424 101.962 213.825 101.871 213.276 101.651C212.726 101.432 212.242 101.091 211.867 100.657C211.515 101.063 211.069 101.388 210.562 101.608C210.055 101.828 209.5 101.937 208.941 101.927C208.381 101.917 207.832 101.788 207.334 101.55C206.836 101.312 206.404 100.971 206.069 100.554C205 101.416 203.641 101.903 202.226 101.928C200.812 101.954 199.433 101.517 198.328 100.694C198.06 100.681 197.792 100.652 197.527 100.609C196.579 101.351 195.409 101.804 194.174 101.907C192.94 102.01 191.702 101.757 190.627 101.183C190.337 101.568 189.956 101.885 189.513 102.11C189.069 102.335 188.577 102.462 188.072 102.481C187.568 102.5 187.066 102.41 186.605 102.219C186.144 102.028 185.736 101.74 185.414 101.379C185.552 101.421 185.69 101.421 185.808 101.421Z" fill="white"/>
<path d="M182.807 99.8202C183.286 100.548 184.048 101.076 184.934 101.293C184.635 101.654 184.253 101.948 183.816 102.154C183.378 102.36 182.897 102.471 182.407 102.481C181.917 102.491 181.431 102.399 180.985 102.212C180.538 102.024 180.142 101.746 179.826 101.397C180.426 101.391 181.014 101.243 181.536 100.967C182.057 100.691 182.495 100.297 182.807 99.8202Z" fill="white"/>
</g>
<path d="M162.992 188.391C162.992 188.391 163.34 197.375 168.822 197.375C174.305 197.375 179.78 171.871 179.78 171.871V153.646L170.385 149.398L162.992 160.705L160.202 177.701L162.992 188.391Z" fill="#4ABDAF"/>
<path opacity="0.7" d="M162.992 188.391C162.992 188.391 163.34 197.375 168.822 197.375C174.305 197.375 179.78 171.871 179.78 171.871V153.646L170.385 149.398L162.992 160.705L160.202 177.701L162.992 188.391Z" fill="white"/>
<path opacity="0.2" d="M162.992 188.391C162.992 188.391 163.34 197.375 168.822 197.375C174.305 197.375 179.78 171.871 179.78 171.871V153.646L170.385 149.398L162.992 160.705L160.202 177.701L162.992 188.391Z" fill="black"/>
<path d="M127.978 155.589C127.321 163.706 125.627 173.448 133.847 187.657C142.067 201.867 151.075 200.052 148.331 184.382C148.331 184.382 151.075 198.958 159.683 198.958C168.291 198.958 166.341 162.899 172.604 162.899C178.868 162.899 172.604 198.958 181.606 198.958C190.607 198.958 200.397 179.645 198.44 164.733C196.483 149.82 198.44 142.504 204.704 133.031C210.967 123.558 211.63 98.3107 193.352 100.963C189.997 101.452 180.043 103.512 180.043 103.512C180.043 103.512 172.21 98.0479 163.629 102.424C163.629 102.424 153.84 96.2267 144.05 103.151C144.05 103.151 130.354 95.8599 122.128 104.245C113.901 112.63 117.827 127.201 122.128 134.486C126.428 141.771 128.687 146.147 127.978 155.589Z" fill="#4ABDAF"/>
<path opacity="0.8" d="M127.978 155.589C127.321 163.706 125.627 173.448 133.847 187.657C142.067 201.867 151.075 200.052 148.331 184.382C148.331 184.382 151.075 198.958 159.683 198.958C168.291 198.958 166.341 162.899 172.604 162.899C178.868 162.899 172.604 198.958 181.606 198.958C190.607 198.958 200.397 179.645 198.44 164.733C196.483 149.82 198.44 142.504 204.704 133.031C210.967 123.558 211.63 98.3107 193.352 100.963C189.997 101.452 180.043 103.512 180.043 103.512C180.043 103.512 172.21 98.0479 163.629 102.424C163.629 102.424 153.84 96.2267 144.05 103.151C144.05 103.151 130.354 95.8599 122.128 104.245C113.901 112.63 117.827 127.201 122.128 134.486C126.428 141.771 128.687 146.147 127.978 155.589Z" fill="white"/>
<g opacity="0.1">
<path d="M134.628 162.636C133.972 168.137 137.754 190.206 142.704 196.972C147.143 198.597 150.051 194.221 148.331 184.382C148.331 184.382 145.593 175.025 143.505 165.307C141.417 155.589 135.416 156.078 134.628 162.636Z" fill="black"/>
<path d="M148.331 184.382C148.331 184.382 148.39 184.687 148.515 185.201C148.384 184.687 148.331 184.382 148.331 184.382Z" fill="black"/>
</g>
<path opacity="0.1" d="M176.386 158.994C171.954 157.05 169.636 166.774 169.636 166.774C170.392 164.384 171.324 162.881 172.604 162.881C178.868 162.881 172.604 198.94 181.606 198.94C176.123 198.958 180.824 160.937 176.386 158.994Z" fill="black"/>
<path opacity="0.4" d="M193.352 100.933C189.997 101.422 180.043 103.481 180.043 103.481C180.043 103.481 172.21 98.0173 163.629 102.393C163.629 102.393 153.84 96.196 144.05 103.121C144.05 103.121 130.354 95.8293 122.128 104.215C117.217 109.22 116.639 116.438 117.893 123.002C117.893 123.002 121.346 133.972 130.742 131.784C140.137 129.596 146.401 131.784 170.018 136.399C193.634 141.013 202.629 137.407 207.008 128.16C210.757 116.945 209.05 98.659 193.352 100.933Z" fill="white"/>
<path d="M150.104 176.308C149.876 176.355 149.64 176.36 149.411 176.321C149.181 176.283 148.962 176.202 148.766 176.084C148.57 175.965 148.402 175.812 148.271 175.632C148.14 175.452 148.049 175.25 148.003 175.037C145.994 165.747 145.587 158.138 145.232 151.385C145.107 149.05 144.989 146.813 144.805 144.717C144.776 144.289 144.928 143.868 145.229 143.543C145.53 143.219 145.955 143.017 146.414 142.981C146.648 142.96 146.885 142.983 147.11 143.048C147.335 143.113 147.544 143.219 147.724 143.36C147.904 143.502 148.053 143.675 148.16 143.87C148.268 144.065 148.333 144.278 148.351 144.497C148.535 146.636 148.653 148.891 148.777 151.219C149.132 157.851 149.526 165.325 151.483 174.364C151.576 174.79 151.486 175.232 151.232 175.596C150.977 175.96 150.579 176.216 150.123 176.308H150.104Z" fill="#4ABDAF"/>
<path d="M142.337 132.316C140.831 126.285 140.688 120.029 141.916 113.944C141.964 113.71 142.062 113.487 142.207 113.29C142.351 113.092 142.537 112.925 142.755 112.798C142.972 112.671 143.215 112.588 143.468 112.553C143.721 112.517 143.98 112.531 144.227 112.594C144.68 112.704 145.071 112.969 145.322 113.336C145.573 113.704 145.665 114.146 145.58 114.574C144.989 117.556 144.05 124.352 145.948 131.485C146.063 131.915 145.996 132.369 145.761 132.755C145.527 133.14 145.142 133.427 144.687 133.557C144.445 133.625 144.191 133.647 143.94 133.621C143.689 133.595 143.446 133.522 143.226 133.406C143.006 133.289 142.814 133.133 142.661 132.946C142.508 132.758 142.398 132.544 142.337 132.316Z" fill="#4ABDAF"/>
<g opacity="0.9">
<path d="M150.104 176.308C149.876 176.355 149.64 176.36 149.411 176.321C149.181 176.283 148.962 176.202 148.766 176.084C148.57 175.965 148.402 175.812 148.271 175.632C148.14 175.452 148.049 175.25 148.003 175.037C145.994 165.747 145.587 158.138 145.232 151.385C145.107 149.05 144.989 146.813 144.805 144.717C144.776 144.289 144.928 143.868 145.229 143.543C145.53 143.219 145.955 143.017 146.414 142.981C146.648 142.96 146.885 142.983 147.11 143.048C147.335 143.113 147.544 143.219 147.724 143.36C147.904 143.502 148.053 143.675 148.16 143.87C148.268 144.065 148.333 144.278 148.351 144.497C148.535 146.636 148.653 148.891 148.777 151.219C149.132 157.851 149.526 165.325 151.483 174.364C151.576 174.79 151.486 175.232 151.232 175.596C150.977 175.96 150.579 176.216 150.123 176.308H150.104Z" fill="white"/>
</g>
<g opacity="0.9">
<path d="M142.337 132.316C140.831 126.285 140.688 120.029 141.916 113.944C141.964 113.71 142.062 113.487 142.207 113.29C142.351 113.092 142.537 112.925 142.755 112.798C142.972 112.671 143.215 112.588 143.468 112.553C143.721 112.517 143.98 112.531 144.227 112.594C144.68 112.704 145.071 112.969 145.322 113.336C145.573 113.704 145.665 114.146 145.58 114.574C144.989 117.556 144.05 124.352 145.948 131.485C146.063 131.915 145.996 132.369 145.761 132.755C145.527 133.14 145.142 133.427 144.687 133.557C144.445 133.625 144.191 133.647 143.94 133.621C143.689 133.595 143.446 133.522 143.226 133.406C143.006 133.289 142.814 133.133 142.661 132.946C142.508 132.758 142.398 132.544 142.337 132.316Z" fill="white"/>
</g>
<path opacity="0.1" d="M136.848 100.657C136.407 100.858 136.02 101.148 135.715 101.505C135.409 101.861 135.192 102.277 135.08 102.721C134.967 103.165 134.962 103.627 135.065 104.074C135.167 104.52 135.375 104.94 135.672 105.302C137.924 107.551 144.024 103.12 144.024 103.12C141.764 101.999 139.349 101.17 136.848 100.657Z" fill="black"/>
<path opacity="0.1" d="M189.695 103.298C185.755 104.092 180.043 103.481 180.043 103.481C180.043 103.481 172.21 98.0174 163.629 102.393C168.632 104.781 174.185 105.999 179.807 105.944C189.438 105.944 193.614 102.509 189.695 103.298Z" fill="black"/>
<path d="M207.232 240.297L202.557 238.659L205.314 228.117L209.989 229.761L207.232 240.297Z" fill="#7F3E3B"/>
<path d="M202.15 237.938L207.849 239.937C207.942 239.97 208.02 240.032 208.071 240.112C208.123 240.191 208.144 240.285 208.131 240.377L207.527 244.582C207.512 244.684 207.472 244.781 207.411 244.867C207.349 244.952 207.267 245.024 207.172 245.075C207.076 245.127 206.969 245.158 206.859 245.166C206.749 245.173 206.638 245.158 206.536 245.12C204.717 244.447 203.417 243.897 201.106 243.066C199.688 242.565 195.348 241.202 193.391 240.511C191.435 239.821 191.881 237.92 192.735 238.036C196.628 238.568 199.74 238.507 201.27 237.938C201.553 237.837 201.867 237.837 202.15 237.938Z" fill="#263238"/>
<path d="M200.305 238.158C199.977 238.068 199.691 237.879 199.49 237.621C199.44 237.525 199.414 237.421 199.414 237.315C199.414 237.209 199.44 237.104 199.49 237.009C199.515 236.949 199.557 236.896 199.611 236.856C199.665 236.817 199.73 236.791 199.799 236.783C200.41 236.716 201.578 238.116 201.71 238.274C201.723 238.293 201.73 238.314 201.73 238.336C201.73 238.357 201.723 238.379 201.71 238.397C201.699 238.415 201.683 238.43 201.663 238.44C201.643 238.45 201.62 238.454 201.598 238.452C201.156 238.399 200.723 238.301 200.305 238.158ZM199.963 237.009C199.913 237.001 199.862 237.001 199.812 237.009C199.779 237.009 199.733 237.009 199.694 237.107C199.657 237.173 199.637 237.246 199.637 237.321C199.637 237.396 199.657 237.469 199.694 237.535C200.127 237.94 200.709 238.178 201.322 238.201C200.957 237.726 200.495 237.321 199.963 237.009Z" fill="#4ABDAF"/>
<path d="M201.565 238.427L201.513 238.397C201.125 237.981 200.567 236.691 200.856 236.239C200.903 236.17 200.975 236.117 201.058 236.09C201.142 236.064 201.233 236.064 201.316 236.092C201.404 236.113 201.487 236.149 201.56 236.201C201.632 236.253 201.692 236.318 201.736 236.392C202.117 237.003 201.736 238.299 201.736 238.354C201.73 238.372 201.719 238.388 201.704 238.401C201.689 238.414 201.671 238.423 201.651 238.427H201.565ZM201.316 236.325H201.263C201.112 236.288 201.073 236.325 201.06 236.367C200.889 236.636 201.198 237.59 201.546 238.079C201.713 237.569 201.713 237.024 201.546 236.514C201.499 236.426 201.416 236.358 201.316 236.325Z" fill="#4ABDAF"/>
<path opacity="0.2" d="M203.64 234.528L208.505 235.42L209.93 229.987L205.058 229.095L203.64 234.528Z" fill="black"/>
<path d="M230.297 135.225C230.297 135.225 218.675 173.729 214.966 186.753C211.683 198.273 202.76 231.509 202.76 231.509L211.296 233.208C211.296 233.208 222.799 200.578 226.771 189.748C231.498 176.876 246.757 138.41 246.757 138.41L230.297 135.225Z" fill="#263238"/>
<path d="M201.979 232.48L211.998 234.112L212.852 231.295L202.058 229.033L201.979 232.48Z" fill="#4ABDAF"/>
<path opacity="0.5" d="M242.62 148.897L242.41 145.579L239.679 143.592C239.679 143.592 234.492 157.967 233.356 172.513C236.508 164.421 239.987 155.559 242.62 148.897Z" fill="black"/>
<path d="M250.985 241.19H245.995L244.577 230.427H249.573L250.985 241.19Z" fill="#7F3E3B"/>
<path d="M245.339 240.652H251.425C251.525 240.653 251.621 240.685 251.7 240.742C251.778 240.8 251.834 240.88 251.858 240.97L252.889 245.101C252.914 245.202 252.914 245.306 252.889 245.406C252.864 245.507 252.815 245.601 252.746 245.681C252.676 245.761 252.588 245.825 252.488 245.869C252.387 245.912 252.278 245.934 252.167 245.932C250.197 245.902 248.773 245.792 246.304 245.792C244.787 245.792 240.211 245.938 238.116 245.938C236.022 245.938 235.707 244.007 236.58 243.824C240.421 243.042 243.31 241.99 244.531 240.927C244.755 240.746 245.042 240.648 245.339 240.652Z" fill="#263238"/>
<path d="M243.697 241.465C243.356 241.489 243.015 241.405 242.732 241.226C242.641 241.157 242.57 241.067 242.526 240.966C242.481 240.865 242.464 240.755 242.476 240.646C242.476 240.582 242.495 240.519 242.531 240.464C242.567 240.409 242.618 240.364 242.679 240.334C243.224 240.071 244.846 240.994 245.03 241.098C245.05 241.109 245.066 241.126 245.076 241.145C245.087 241.165 245.091 241.186 245.089 241.208C245.085 241.23 245.074 241.25 245.057 241.266C245.041 241.283 245.02 241.294 244.997 241.3C244.572 241.401 244.136 241.457 243.697 241.465ZM242.929 240.505C242.879 240.495 242.828 240.495 242.778 240.505C242.753 240.517 242.732 240.536 242.718 240.558C242.704 240.581 242.697 240.607 242.699 240.634C242.69 240.709 242.701 240.785 242.731 240.855C242.76 240.925 242.808 240.988 242.87 241.037C243.428 241.272 244.062 241.301 244.642 241.116C244.117 240.815 243.536 240.608 242.929 240.505Z" fill="#4ABDAF"/>
<path d="M244.971 241.3C244.951 241.305 244.931 241.305 244.912 241.3C244.393 241.037 243.382 240.022 243.487 239.503C243.502 239.421 243.549 239.348 243.617 239.295C243.686 239.242 243.772 239.214 243.861 239.216C243.951 239.205 244.043 239.212 244.13 239.237C244.217 239.261 244.297 239.301 244.367 239.356C244.951 239.796 245.082 241.141 245.089 241.19C245.09 241.209 245.086 241.228 245.077 241.245C245.067 241.262 245.053 241.277 245.036 241.287C245.016 241.297 244.993 241.301 244.971 241.3ZM243.94 239.417H243.887C243.736 239.417 243.723 239.503 243.717 239.533C243.658 239.839 244.301 240.609 244.82 240.97C244.781 240.453 244.58 239.957 244.242 239.546C244.204 239.506 244.157 239.474 244.105 239.452C244.053 239.43 243.997 239.418 243.94 239.417Z" fill="#4ABDAF"/>
<path opacity="0.2" d="M244.616 230.733L245.417 236.801H250.407L249.613 230.733H244.616Z" fill="black"/>
<path d="M238.95 136.918C238.95 136.918 238.911 174.811 238.72 188.446C238.517 203.383 242.988 234.895 242.988 234.895H252.121C252.121 234.895 250.289 206.237 251.504 191.434C252.272 182.126 254.787 164.775 255.732 153.359C256.487 144.491 255.844 140.102 255.844 140.102L238.95 136.918Z" fill="#263238"/>
<path d="M241.892 235.084H252.666L252.633 232.089L241.386 231.484L241.892 235.084Z" fill="#4ABDAF"/>
<path d="M240.303 102.522C238.766 104.691 237.197 106.861 235.615 109.006L230.861 115.43C230.086 116.499 229.285 117.563 228.544 118.614C228.006 119.379 227.354 120.068 226.607 120.661C225.707 121.377 224.62 121.858 223.455 122.055C222.325 122.232 221.164 122.124 220.094 121.743C219.218 121.428 218.402 120.984 217.677 120.429C217.03 119.945 216.44 119.398 215.918 118.797C215.402 118.223 214.938 117.61 214.532 116.964L217.113 115.13C217.559 115.448 218.091 115.851 218.597 116.157C219.086 116.46 219.599 116.728 220.133 116.957C221.138 117.404 222.03 117.446 222.293 117.22C222.488 117.103 222.659 116.954 222.799 116.78C223.046 116.459 223.266 116.12 223.455 115.766C224.177 114.586 224.886 113.443 225.628 112.313C227.099 110.059 228.603 107.833 230.139 105.632C231.675 103.432 233.245 101.263 234.86 99.1052L240.303 102.522Z" fill="#803E3C"/>
<path d="M243.133 99.5085C243.861 103.463 234.098 112.863 234.098 112.863L226.219 106.751C228.239 103.639 230.614 100.739 233.304 98.1028C237.296 94.3503 242.332 95.1692 243.133 99.5085Z" fill="#4ABDAF"/>
<path opacity="0.7" d="M243.133 99.5085C243.861 103.463 234.098 112.863 234.098 112.863L226.219 106.751C228.239 103.639 230.614 100.739 233.304 98.1028C237.296 94.3503 242.332 95.1692 243.133 99.5085Z" fill="white"/>
<path opacity="0.2" d="M236.941 104.092C234.65 104.765 231.872 107.931 231.17 110.595L234.098 112.863C236.433 110.583 238.582 108.144 240.526 105.565C239.994 104.52 239.567 103.322 236.941 104.092Z" fill="black"/>
<path d="M265.587 100.731C263.485 105.537 261.773 110.483 260.466 115.527C259.533 119.048 258.811 122.427 258.233 125.502C257.369 130.336 256.78 135.21 256.467 140.102L229.66 135.17C229.66 135.17 232.398 124.505 232.982 120.099C235.155 103.677 238.097 95.7805 238.097 95.7805C240.234 95.6737 242.376 95.688 244.511 95.8233C244.964 95.8233 245.424 95.8966 245.883 95.9394C249.645 96.4384 253.371 97.1403 257.045 98.0418C257.741 98.2068 258.443 98.3902 259.126 98.5796C262.58 99.5453 265.587 100.731 265.587 100.731Z" fill="#4ABDAF"/>
<g opacity="0.7">
<path d="M265.587 100.731C263.485 105.537 261.773 110.483 260.466 115.527C259.533 119.048 258.811 122.427 258.233 125.502C257.369 130.336 256.78 135.21 256.467 140.102L229.66 135.17C229.66 135.17 232.398 124.505 232.982 120.099C235.155 103.677 238.097 95.7805 238.097 95.7805C240.234 95.6737 242.376 95.688 244.511 95.8233C244.964 95.8233 245.424 95.8966 245.883 95.9394C249.645 96.4384 253.371 97.1403 257.045 98.0418C257.741 98.2068 258.443 98.3902 259.126 98.5796C262.58 99.5453 265.587 100.731 265.587 100.731Z" fill="white"/>
</g>
<path opacity="0.2" d="M263.611 105.596L262.744 103.866L259.389 106.445C259.389 106.445 257.748 113.779 259.389 119.934C259.717 118.504 260.046 117.043 260.459 115.546C261.313 112.294 262.363 108.939 263.611 105.596Z" fill="black"/>
<path d="M258.332 86.1423C256.94 89.3449 254.977 95.3099 257.019 98.0296C255.69 98.8924 254.177 99.4782 252.583 99.7472C250.988 100.016 249.351 99.9618 247.781 99.588C244.708 98.9402 244.971 96.905 245.884 95.921C250.066 95.7866 250.532 93.0058 250.375 90.2799L258.332 86.1423Z" fill="#7F3E3B"/>
<path opacity="0.2" d="M255.089 87.8475L250.375 90.2922C250.437 90.9265 250.437 91.5648 250.375 92.1991C251.944 92.2785 254.36 91.1173 254.833 89.6566C255.036 89.0732 255.122 88.46 255.089 87.8475Z" fill="black"/>
<path d="M260.702 82.188C258.883 86.4661 258.076 89.0697 254.892 90.5732C250.145 92.8345 245.043 89.0086 245.463 84.2904C245.831 80.0428 248.746 73.7477 253.953 73.4483C255.105 73.383 256.257 73.5906 257.3 74.0517C258.343 74.5128 259.243 75.2124 259.917 76.0851C260.591 76.9578 261.017 77.9752 261.154 79.0424C261.291 80.1096 261.136 81.1918 260.702 82.188Z" fill="#7F3E3B"/>
<path d="M250.151 80.4341C249.31 81.3391 248.338 82.131 247.262 82.7871C247.466 83.0347 247.725 83.239 248.02 83.3865C248.316 83.5341 248.641 83.6214 248.976 83.6427L250.151 80.4341Z" fill="#630F0F"/>
<path d="M254.944 80.2935C254.902 80.2861 254.863 80.2687 254.831 80.243C254.799 80.2173 254.774 80.1841 254.76 80.1468C254.67 79.8831 254.517 79.6422 254.31 79.4429C254.104 79.2436 253.852 79.0913 253.572 78.9978C253.512 78.982 253.46 78.9453 253.429 78.8952C253.397 78.8451 253.387 78.7856 253.401 78.7289C253.408 78.701 253.421 78.6747 253.439 78.6515C253.457 78.6283 253.48 78.6087 253.506 78.5939C253.532 78.579 253.562 78.5693 253.592 78.5652C253.623 78.5611 253.654 78.5627 253.683 78.57C254.045 78.6817 254.372 78.8728 254.637 79.127C254.902 79.3813 255.097 79.6913 255.207 80.0307C255.218 80.0579 255.223 80.087 255.222 80.1162C255.221 80.1454 255.213 80.174 255.2 80.2003C255.186 80.2267 255.167 80.2501 255.143 80.2693C255.12 80.2885 255.092 80.303 255.062 80.3118C255.022 80.315 254.981 80.3087 254.944 80.2935Z" fill="#263238"/>
<path d="M247.459 77.8548C247.418 77.846 247.38 77.8271 247.349 77.8003C247.318 77.7734 247.295 77.7395 247.282 77.7017C247.269 77.664 247.268 77.6239 247.277 77.5854C247.286 77.5468 247.306 77.5112 247.335 77.482C247.59 77.2272 247.908 77.0331 248.261 76.9162C248.614 76.7992 248.992 76.7627 249.363 76.8097C249.425 76.8229 249.478 76.8577 249.512 76.9067C249.546 76.9557 249.559 77.0151 249.547 77.0725C249.534 77.129 249.498 77.1786 249.447 77.2106C249.395 77.2426 249.332 77.2545 249.271 77.2437C248.977 77.2057 248.678 77.2361 248.399 77.332C248.121 77.428 247.872 77.5866 247.676 77.7937C247.648 77.8195 247.613 77.8386 247.576 77.8492C247.538 77.8599 247.498 77.8618 247.459 77.8548Z" fill="#263238"/>
<path d="M217.093 114.934L213.771 112.001L212.202 116.499C212.202 116.499 215.34 118.944 216.627 117.397L217.093 114.934Z" fill="#7F3E3B"/>
<path d="M209.333 111.109L209.398 115.405L212.202 116.499L213.771 112.001L209.333 111.109Z" fill="#7F3E3B"/>
<path d="M248.838 84.7C250.428 84.6889 252.015 84.8178 253.579 85.085C253.021 86.0018 252.134 86.6863 250.362 86.4235C250.137 86.4111 249.917 86.3556 249.717 86.2606C249.516 86.1656 249.339 86.033 249.196 85.8712C249.053 85.7094 248.947 85.5219 248.886 85.3203C248.824 85.1188 248.808 84.9076 248.838 84.7Z" fill="#263238"/>
<path d="M251.307 85.7757C250.633 85.6459 249.933 85.7165 249.304 85.9774C249.597 86.2266 249.967 86.3828 250.361 86.4235C251.035 86.5593 251.737 86.4885 252.364 86.2218C252.07 85.9736 251.701 85.8176 251.307 85.7757Z" fill="#A02724"/>
<path d="M249.002 84.694C249.018 84.8176 249.069 84.9348 249.152 85.0329C249.234 85.131 249.343 85.2061 249.468 85.2501C250.496 85.3936 251.535 85.455 252.574 85.4335C252.739 85.4434 252.904 85.415 253.054 85.351C253.204 85.287 253.334 85.1894 253.434 85.0668C251.969 84.8391 250.487 84.7145 249.002 84.694Z" fill="white"/>
<path d="M251.215 74.4324C251.215 74.4324 251.156 71.89 252.705 70.686C254.255 69.482 254.793 70.8632 254.793 70.8632C254.793 70.8632 256.264 68.7119 258.161 69.0969C260.059 69.482 259.77 70.7532 259.77 70.7532C259.77 70.7532 262.107 69.702 263.092 70.5821C264.077 71.4621 262.028 73.3018 262.435 73.6379C262.842 73.974 269.303 73.0267 265.81 77.476C265.81 77.476 269.421 78.0016 266.841 80.4158C266.841 80.4158 269.507 82.7993 265.173 83.1416C265.173 83.1416 267.635 85.5068 261.234 85.0484L259.047 81.9009L258.391 78.5456L256.421 76.4493L254.071 75.0864L251.215 74.4324Z" fill="#263238"/>
<path d="M258.076 85.0667C258.076 85.0667 258.798 81.3263 255.246 77.5677C255.067 77.3806 254.935 77.1582 254.86 76.9171C254.786 76.676 254.771 76.4224 254.816 76.1751C254.862 75.9278 254.967 75.6933 255.123 75.4889C255.279 75.2845 255.483 75.1156 255.719 74.9946C256.063 74.8197 256.46 74.7561 256.847 74.8136C257.235 74.8711 257.591 75.0465 257.859 75.3124C259.284 76.7487 261.595 79.9512 260.623 84.9628L258.076 85.0667Z" fill="#4ABDAF"/>
<path opacity="0.5" d="M258.076 85.0667C258.076 85.0667 258.798 81.3263 255.246 77.5677C255.067 77.3806 254.935 77.1582 254.86 76.9171C254.786 76.676 254.771 76.4224 254.816 76.1751C254.862 75.9278 254.967 75.6933 255.123 75.4889C255.279 75.2845 255.483 75.1156 255.719 74.9946C256.063 74.8197 256.46 74.7561 256.847 74.8136C257.235 74.8711 257.591 75.0465 257.859 75.3124C259.284 76.7487 261.595 79.9512 260.623 84.9628L258.076 85.0667Z" fill="white"/>
<path d="M261.241 86.3868C260.879 86.8494 260.422 87.2409 259.897 87.5388C259.372 87.8367 258.789 88.0351 258.181 88.1225C256.553 88.3487 255.936 86.9369 256.553 85.5984C257.104 84.3761 258.621 82.8298 260.177 83.221C260.516 83.3117 260.826 83.4795 261.079 83.7092C261.332 83.9389 261.519 84.2235 261.625 84.5373C261.73 84.8511 261.75 85.1843 261.683 85.5071C261.616 85.8299 261.464 86.1322 261.241 86.3868Z" fill="#7F3E3B"/>
<path opacity="0.1" d="M256.756 76.9383H256.789C256.966 76.8369 257.118 76.7022 257.235 76.543C257.353 76.3838 257.433 76.2035 257.471 76.0136C257.51 75.8237 257.505 75.6285 257.458 75.4404C257.41 75.2524 257.321 75.0756 257.196 74.9214C256.891 74.8132 256.56 74.7855 256.239 74.8414C255.918 74.8972 255.62 75.0345 255.377 75.238C255.135 75.4416 254.958 75.7035 254.865 75.9949C254.772 76.2862 254.768 76.5958 254.852 76.8894L255.509 77.0788C255.715 77.141 255.934 77.1606 256.149 77.1363C256.364 77.112 256.572 77.0445 256.756 76.9383Z" fill="black"/>
<path d="M253.244 81.1675C253.112 81.5281 252.797 81.7787 252.541 81.6809C252.285 81.5831 252.187 81.2408 252.318 80.8741C252.449 80.5074 252.764 80.263 253.02 80.3608C253.276 80.4585 253.375 80.8008 253.244 81.1675Z" fill="#263238"/>
<path d="M248.838 79.7799C248.707 80.1466 248.391 80.3911 248.135 80.2933C247.879 80.1955 247.781 79.8533 247.912 79.4866C248.043 79.1199 248.359 78.8754 248.615 78.9732C248.871 79.071 248.943 79.4193 248.838 79.7799Z" fill="#263238"/>
<path d="M248.694 79.0283L247.84 78.4783C247.84 78.4783 248.076 79.3156 248.694 79.0283Z" fill="#263238"/>
<path d="M253.125 80.4158L252.272 79.8657C252.272 79.8657 252.508 80.703 253.125 80.4158Z" fill="#263238"/>
<path d="M256.06 74.2245C254.495 73.7988 252.837 73.7651 251.254 74.1267C250.167 74.6862 249.236 75.4754 248.536 76.4308H248.588C249.173 75.9235 250.827 75.2085 255.187 76.5836C255.374 76.647 255.574 76.6701 255.772 76.651C255.97 76.632 256.16 76.5713 256.329 76.4736C256.558 76.3574 256.745 76.1805 256.865 75.9652C256.986 75.7499 257.035 75.5061 257.006 75.2649C256.977 75.0236 256.872 74.7958 256.703 74.6106C256.535 74.4253 256.311 74.2909 256.06 74.2245Z" fill="#4ABDAF"/>
<path opacity="0.7" d="M256.06 74.2245C254.495 73.7988 252.837 73.7651 251.254 74.1267C250.167 74.6862 249.236 75.4754 248.536 76.4308H248.588C249.173 75.9235 250.827 75.2085 255.187 76.5836C255.374 76.647 255.574 76.6701 255.772 76.651C255.97 76.632 256.16 76.5713 256.329 76.4736C256.558 76.3574 256.745 76.1805 256.865 75.9652C256.986 75.7499 257.035 75.5061 257.006 75.2649C256.977 75.0236 256.872 74.7958 256.703 74.6106C256.535 74.4253 256.311 74.2909 256.06 74.2245Z" fill="white"/>
<path d="M181.442 101.947C180.654 103.377 180.056 103.53 179.551 103.286C179.045 103.041 178.835 102.509 179.617 101.079C180.398 99.6491 185.02 92.199 185.526 92.4374C186.031 92.6757 182.23 100.517 181.442 101.947Z" fill="#263238"/>
<path opacity="0.6" d="M181.442 101.947C180.654 103.377 180.056 103.53 179.551 103.286C179.045 103.041 178.835 102.509 179.617 101.079C180.398 99.6491 185.02 92.199 185.526 92.4374C186.031 92.6757 182.23 100.517 181.442 101.947Z" fill="white"/>
<path opacity="0.9" d="M179.308 103.114C179.377 102.619 179.551 102.141 179.82 101.709C180.516 100.444 184.225 94.4359 185.407 93.2624C185.565 92.7857 185.617 92.4801 185.525 92.4374C185.02 92.199 180.404 99.6491 179.616 101.079C178.979 102.24 179.006 102.815 179.308 103.114Z" fill="white"/>
<path d="M179.616 101.079C178.835 102.509 178.231 102.656 177.732 102.418C177.233 102.179 177.01 101.635 177.791 100.211C178.572 98.7872 183.195 91.3249 183.7 91.5693C184.206 91.8138 180.404 99.649 179.616 101.079Z" fill="#263238"/>
<path opacity="0.6" d="M179.616 101.079C178.835 102.509 178.231 102.656 177.732 102.418C177.233 102.179 177.01 101.635 177.791 100.211C178.572 98.7872 183.195 91.3249 183.7 91.5693C184.206 91.8138 180.404 99.649 179.616 101.079Z" fill="white"/>
<path opacity="0.9" d="M177.483 102.246C177.551 101.751 177.725 101.273 177.995 100.841C178.691 99.5695 182.4 93.5679 183.582 92.3944C183.74 91.9177 183.792 91.6121 183.7 91.5694C183.195 91.3249 178.579 98.7811 177.791 100.211C177.154 101.366 177.181 101.941 177.483 102.246Z" fill="white"/>
<path d="M177.791 100.199C177.01 101.623 176.413 101.776 175.907 101.538C175.401 101.299 175.185 100.755 175.973 99.3253C176.76 97.8951 181.376 90.445 181.882 90.6833C182.387 90.9217 178.586 98.7813 177.791 100.199Z" fill="#263238"/>
<path opacity="0.6" d="M177.791 100.199C177.01 101.623 176.413 101.776 175.907 101.538C175.401 101.299 175.185 100.755 175.973 99.3253C176.76 97.8951 181.376 90.445 181.882 90.6833C182.387 90.9217 178.586 98.7813 177.791 100.199Z" fill="white"/>
<path opacity="0.9" d="M175.657 101.379C175.725 100.881 175.899 100.401 176.169 99.967C176.872 98.7018 180.581 92.7002 181.763 91.5267C181.914 91.05 181.973 90.7444 181.875 90.6955C181.376 90.4572 176.754 97.9134 175.966 99.3375C175.303 100.499 175.355 101.073 175.657 101.379Z" fill="white"/>
<path d="M175.959 99.3375C175.171 100.768 174.574 100.92 174.068 100.682C173.563 100.444 173.346 99.8998 174.134 98.4697C174.922 97.0395 179.538 89.5894 180.043 89.8277C180.549 90.0661 176.754 97.9135 175.959 99.3375Z" fill="#263238"/>
<path opacity="0.6" d="M175.959 99.3375C175.171 100.768 174.574 100.92 174.068 100.682C173.563 100.444 173.346 99.8998 174.134 98.4697C174.922 97.0395 179.538 89.5894 180.043 89.8277C180.549 90.0661 176.754 97.9135 175.959 99.3375Z" fill="white"/>
<path opacity="0.9" d="M173.832 100.511C173.903 100.013 174.079 99.5332 174.351 99.0992C175.047 97.834 178.756 91.8263 179.938 90.6528C180.089 90.1761 180.148 89.8705 180.056 89.8277C179.551 89.5894 174.935 97.0395 174.147 98.4697C173.51 99.6309 173.53 100.199 173.832 100.511Z" fill="white"/>
<path d="M174.147 98.4696C173.359 99.8998 172.762 100.053 172.256 99.8081C171.751 99.5636 171.541 99.0258 172.322 97.6018C173.103 96.1778 177.726 88.7154 178.231 88.9599C178.737 89.2043 174.935 97.0395 174.147 98.4696Z" fill="#263238"/>
<path opacity="0.6" d="M174.147 98.4696C173.359 99.8998 172.762 100.053 172.256 99.8081C171.751 99.5636 171.541 99.0258 172.322 97.6018C173.103 96.1778 177.726 88.7154 178.231 88.9599C178.737 89.2043 174.935 97.0395 174.147 98.4696Z" fill="white"/>
<path opacity="0.9" d="M172.02 99.637C172.089 99.1415 172.263 98.6637 172.532 98.2313C173.228 96.9601 176.938 90.9584 178.12 89.7849C178.277 89.3082 178.33 89.0026 178.238 88.9599C177.732 88.7154 173.117 96.1716 172.329 97.6018C171.685 98.763 171.711 99.3375 172.02 99.637Z" fill="white"/>
<path d="M172.322 97.6017C171.541 99.0257 170.937 99.1785 170.438 98.9402C169.939 98.7018 169.715 98.1579 170.503 96.7339C171.291 95.3098 175.9 87.8475 176.412 88.0919C176.924 88.3364 173.11 96.1716 172.322 97.6017Z" fill="#4ABDAF"/>
<path opacity="0.5" d="M172.322 97.6017C171.541 99.0257 170.937 99.1785 170.438 98.9402C169.939 98.7018 169.715 98.1579 170.503 96.7339C171.291 95.3098 175.9 87.8475 176.412 88.0919C176.924 88.3364 173.11 96.1716 172.322 97.6017Z" fill="white"/>
<path opacity="0.9" d="M170.188 98.769C170.255 98.2732 170.43 97.795 170.7 97.3634C171.396 96.0921 175.106 90.0905 176.288 88.917C176.445 88.4403 176.498 88.1347 176.406 88.0919C175.9 87.8475 171.285 95.3037 170.497 96.7339C169.86 97.889 169.886 98.4635 170.188 98.769Z" fill="white"/>
<path d="M170.503 96.7339C169.715 98.1579 169.118 98.3107 168.612 98.0724C168.107 97.834 167.89 97.2901 168.678 95.8599C169.466 94.4298 174.081 86.9796 174.587 87.218C175.093 87.4564 171.285 95.3099 170.503 96.7339Z" fill="#4ABDAF"/>
<path opacity="0.5" d="M170.503 96.7339C169.715 98.1579 169.118 98.3107 168.612 98.0724C168.107 97.834 167.89 97.2901 168.678 95.8599C169.466 94.4298 174.081 86.9796 174.587 87.218C175.093 87.4564 171.285 95.3099 170.503 96.7339Z" fill="white"/>
<path opacity="0.9" d="M168.363 97.9012C168.43 97.4025 168.607 96.922 168.882 96.4894C169.578 95.2243 173.287 89.2165 174.469 88.0492C174.62 87.5725 174.679 87.2669 174.581 87.218C174.082 86.9796 169.466 94.4359 168.672 95.8599C168.041 97.0211 168.081 97.5956 168.363 97.9012Z" fill="white"/>
<path d="M168.678 95.8599C167.89 97.29 167.293 97.4428 166.787 97.2044C166.282 96.9661 166.065 96.4221 166.853 94.992C167.641 93.5619 172.256 86.1117 172.762 86.3501C173.267 86.5884 169.466 94.4358 168.678 95.8599Z" fill="#4ABDAF"/>
<path opacity="0.5" d="M168.678 95.8599C167.89 97.29 167.293 97.4428 166.787 97.2044C166.282 96.9661 166.065 96.4221 166.853 94.992C167.641 93.5619 172.256 86.1117 172.762 86.3501C173.267 86.5884 169.466 94.4358 168.678 95.8599Z" fill="white"/>
<path opacity="0.9" d="M166.538 97.0333C166.612 96.5361 166.788 96.0568 167.056 95.6215C167.752 94.3564 171.462 88.3486 172.644 87.1752C172.801 86.6984 172.854 86.3929 172.762 86.3501C172.256 86.1117 167.641 93.5619 166.853 94.992C166.216 96.1532 166.236 96.7277 166.538 97.0333Z" fill="white"/>
<path d="M166.853 94.9921C166.065 96.4222 165.468 96.575 164.962 96.3306C164.456 96.0861 164.246 95.5483 165.028 94.1242C165.809 92.7002 170.431 85.2378 170.937 85.4823C171.442 85.7268 167.641 93.562 166.853 94.9921Z" fill="#263238"/>
<path opacity="0.6" d="M166.853 94.9921C166.065 96.4222 165.468 96.575 164.962 96.3306C164.456 96.0861 164.246 95.5483 165.028 94.1242C165.809 92.7002 170.431 85.2378 170.937 85.4823C171.442 85.7268 167.641 93.562 166.853 94.9921Z" fill="white"/>
<path opacity="0.9" d="M164.719 96.1594C164.787 95.6638 164.962 95.1858 165.231 94.7537C165.927 93.4825 169.637 87.4808 170.819 86.3074C170.976 85.8307 171.029 85.5251 170.937 85.4823C170.431 85.2378 165.816 92.6941 165.028 94.1242C164.391 95.3099 164.417 95.86 164.719 96.1594Z" fill="white"/>
<path d="M165.028 94.1241C164.246 95.5482 163.642 95.701 163.143 95.4626C162.644 95.2242 162.421 94.6803 163.209 93.2502C163.997 91.82 168.606 84.3699 169.118 84.6083C169.63 84.8466 165.816 92.694 165.028 94.1241Z" fill="#263238"/>
<path opacity="0.6" d="M165.028 94.1241C164.246 95.5482 163.642 95.701 163.143 95.4626C162.644 95.2242 162.421 94.6803 163.209 93.2502C163.997 91.82 168.606 84.3699 169.118 84.6083C169.63 84.8466 165.816 92.694 165.028 94.1241Z" fill="white"/>
<path opacity="0.9" d="M162.894 95.3098C162.962 94.8121 163.136 94.3321 163.406 93.898C164.102 92.6329 167.818 86.6312 168.993 85.4578C169.151 84.981 169.203 84.6755 169.111 84.6266C168.606 84.3882 163.99 91.8445 163.202 93.2685C162.565 94.4114 162.592 94.9859 162.894 95.3098Z" fill="white"/>
<path d="M191.06 96.4467C198.854 101.715 211.67 114.519 219.47 119.787C234.748 130.11 286.676 151.837 286.676 151.837C287.506 152.23 288.469 152.301 289.355 152.034C290.241 151.767 290.978 151.184 291.403 150.413C291.828 149.641 291.906 148.744 291.62 147.919C291.334 147.094 290.708 146.408 289.88 146.012C289.88 146.012 236.435 123.839 220.855 113.101C213.836 108.267 202.504 96.5078 195.472 91.6796C190.023 87.9453 171.33 80.2935 171.33 80.2935C170.569 79.9327 169.686 79.8678 168.873 80.113C168.061 80.3582 167.386 80.8935 166.997 81.6014C166.804 81.9525 166.687 82.3355 166.654 82.7287C166.62 83.1218 166.67 83.5172 166.8 83.8924C166.931 84.2676 167.139 84.6152 167.414 84.9152C167.689 85.2153 168.025 85.462 168.402 85.6412C168.402 85.6412 185.893 92.9691 191.06 96.4467Z" fill="#4ABDAF"/>
<path d="M267.445 104.911C267.938 106.476 268.318 107.967 268.699 109.519C269.08 111.072 269.389 112.606 269.671 114.177C269.953 115.747 270.17 117.336 270.327 118.968C270.491 120.672 270.491 122.386 270.327 124.09C270.222 125.109 269.97 126.11 269.579 127.066C269.327 127.657 268.984 128.211 268.561 128.71C268.362 128.946 268.142 129.167 267.905 129.37C267.699 129.569 267.48 129.755 267.248 129.926C265.68 131.054 263.898 131.897 261.996 132.414C258.655 133.359 255.186 133.857 251.694 133.893L251.287 130.886C254.311 130.129 257.264 129.146 260.118 127.946C261.324 127.45 262.434 126.771 263.401 125.935C263.485 125.86 263.562 125.779 263.631 125.691C263.693 125.623 263.748 125.549 263.795 125.471C263.863 125.356 263.918 125.236 263.959 125.11C264.096 124.615 264.171 124.106 264.182 123.595C264.228 122.238 264.152 120.881 263.952 119.537C263.768 118.119 263.519 116.676 263.217 115.258C262.633 112.374 261.904 109.416 261.122 106.592L267.445 104.911Z" fill="#803E3C"/>
<path d="M267.097 101.422C270.623 103.726 271.785 115.643 271.785 115.643L260.847 116.866C260.023 113.422 259.536 109.916 259.389 106.39C259.258 100.81 262.823 98.6468 267.097 101.422Z" fill="#4ABDAF"/>
<path opacity="0.7" d="M267.097 101.422C270.623 103.726 271.785 115.643 271.785 115.643L260.847 116.866C260.023 113.422 259.536 109.916 259.389 106.39C259.258 100.81 262.823 98.6468 267.097 101.422Z" fill="white"/>
<path d="M251.72 130.929L247.407 129.535L248.03 134.877C248.03 134.877 251.97 135.274 252.423 133.343L251.72 130.929Z" fill="#7F3E3B"/>
<path d="M243.874 130.703L244.61 135.091L248.03 134.901L247.4 129.56L243.874 130.703Z" fill="#7F3E3B"/>
<circle cx="41.3606" cy="17.4284" r="10.7666" stroke="#4ABDAF" stroke-width="5"/>
<circle cx="298.107" cy="284.581" r="20.9116" stroke="#407090" stroke-width="5"/>
<circle cx="19.5096" cy="208.883" r="13.7868" fill="#99D8E0"/>
<circle cx="312.935" cy="91.3052" r="15.8678" fill="#4ABDAF"/>
</svg>
