<svg width="33" height="33" viewBox="0 0 33 33" fill="none" xmlns="http://www.w3.org/2000/svg">
<g clip-path="url(#clip0_31_373)">
<path fill-rule="evenodd" clip-rule="evenodd" d="M24.2339 8.25H21.6568C21.0868 8.25 20.6256 8.71123 20.6256 9.28125V11.344C20.6256 11.913 21.0868 12.3742 21.6568 12.3742H24.6192C26.0794 12.3742 27.0301 13.6207 26.7501 15.1145L26.1711 18.2029C25.9178 19.5569 24.6353 20.6255 23.2999 20.6255H21.6568C21.0868 20.6255 20.6256 21.0867 20.6256 21.6557V30.4223C20.6256 31.8458 19.4705 32.9994 18.0469 32.9994C18.0273 33.0008 16.344 32.9994 15.4688 32.9994C14.8998 32.9994 14.437 32.5381 14.437 31.9681C14.437 31.3991 14.8998 30.9369 15.4688 30.9369H17.5313C18.1013 30.9369 18.5626 30.4756 18.5626 29.9066V21.1411C18.5626 19.7165 19.7167 18.5624 21.1412 18.5624H23.0048C23.5416 18.5624 24.091 18.134 24.2339 17.5936L24.7807 15.5342C24.9404 14.9342 24.5995 14.437 24.0168 14.437H21.1411C19.7166 14.437 18.5625 13.2831 18.5625 11.8587V8.76562C18.5625 7.34108 19.7166 6.18731 21.1411 6.18731H23.7182C24.2883 6.18731 24.7495 5.72582 24.7495 5.1558V3.09298C24.7495 2.52424 24.2883 2.06276 23.7182 2.06276H19.5943C16.7462 2.06276 14.437 4.37076 14.437 7.21849V11.8586C14.437 13.2831 13.2834 14.4369 11.8599 14.4369H10.3372C9.75459 14.4369 9.28125 14.9342 9.28125 15.5341V17.5936C9.28125 18.1339 9.71631 18.5624 10.2526 18.5624H11.8599C13.2834 18.5624 14.437 19.7165 14.437 21.141V23.718C14.437 24.2881 13.9758 24.7498 13.4068 24.7498C12.8367 24.7498 12.3755 24.2881 12.3755 23.718V21.6556C12.3755 21.0866 11.9133 20.6254 11.3443 20.6254H9.63626C8.30085 20.6254 7.21875 19.5569 7.21875 18.2029V15.1144C7.21875 13.6206 8.40256 12.3742 9.86281 12.3742H11.3442C11.9132 12.3742 12.3755 11.9129 12.3755 11.3439V6.7028C12.3756 3.00062 15.3761 0 19.0782 0H24.2339C25.6585 0 26.8126 1.15384 26.8126 2.57735V5.67136C26.8126 7.09584 25.6585 8.25 24.2339 8.25ZM13.4068 26.8124C13.9758 26.8124 14.437 27.2736 14.437 27.8436C14.437 28.4126 13.9758 28.8754 13.4068 28.8754C12.8368 28.8754 12.3756 28.4126 12.3756 27.8436C12.3756 27.2736 12.8368 26.8124 13.4068 26.8124Z" fill="#4ABDAF"/>
</g>
<defs>
<clipPath id="clip0_31_373">
<rect width="33" height="33" fill="white"/>
</clipPath>
</defs>
</svg>
