<svg width="33" height="33" viewBox="0 0 33 33" fill="none" xmlns="http://www.w3.org/2000/svg">
<g clip-path="url(#clip0_31_375)">
<path fill-rule="evenodd" clip-rule="evenodd" d="M11.3365 20.6281C11.9047 20.6281 12.3642 21.0885 12.3642 21.6557C12.3642 22.2229 11.9042 22.6829 11.3365 22.6829C10.7693 22.6829 10.3094 22.2229 10.3094 21.6557C10.3094 21.0885 10.7699 20.6281 11.3365 20.6281ZM8.32477 17.6854C7.67456 13.1742 10.8049 8.99095 15.3161 8.34075C19.8273 7.69055 24.0111 10.8209 24.6613 15.3321C25.3115 19.8433 22.1812 24.0271 17.67 24.6773C17.6194 24.685 17.571 24.685 17.5209 24.6907L17.6736 24.6696C17.1095 24.7505 16.5877 24.3592 16.5057 23.7956C16.4247 23.232 16.8161 22.7086 17.3797 22.6267L17.3781 22.623C17.3797 22.623 17.3807 22.623 17.3822 22.623C20.7647 22.1358 23.1103 18.9992 22.623 15.6167C22.1358 12.2337 18.9998 9.88814 15.6167 10.3754C12.2358 10.8627 9.88814 13.9992 10.3759 17.3817C10.3759 17.3833 10.3759 17.3843 10.377 17.3843L10.3733 17.3858C10.4543 17.9494 10.0629 18.4717 9.49936 18.5532C8.93578 18.6342 8.41242 18.2433 8.33044 17.6797L8.35313 17.8334C8.34591 17.7829 8.33198 17.7354 8.32477 17.6854ZM24.7443 6.7057C24.7443 5.8508 25.4384 5.15677 26.2943 5.15677C27.141 5.15677 27.8272 5.83636 27.8407 6.68198V6.73045C27.8272 7.57608 27.141 8.25567 26.2943 8.25567C25.4384 8.25567 24.7443 7.56164 24.7443 6.7057ZM30.2471 30.1744C28.4537 31.9863 25.9653 33 21.6624 33H11.3365C7.03364 33 4.54575 31.9863 2.75344 30.1744C0.983813 28.3872 0 25.8926 0 21.6635V11.3376C0 7.10686 0.983813 4.61381 2.75344 2.82666C4.54575 1.01423 7.03364 0 11.3365 0H21.6619C25.9653 0 28.4532 1.01423 30.2466 2.82666C30.3615 2.94164 30.4667 3.06797 30.573 3.19275C30.7905 3.38147 30.9313 3.65784 30.9313 3.96877C30.9313 4.53853 30.4698 5.00002 29.9001 5.00002C29.5886 5.00002 29.3123 4.85873 29.1235 4.64011L29.1101 4.65094C29.0039 4.52461 28.9044 4.39364 28.7868 4.27556C27.2183 2.6895 24.9026 2.06714 21.1365 2.06714H11.8578C8.09273 2.06714 5.7817 2.6895 4.21317 4.27556C2.66475 5.83945 2.0625 8.16131 2.0625 11.862V21.1417C2.0625 24.8438 2.66475 27.1595 4.21317 28.7229C5.7817 30.3084 8.09273 30.9375 11.8578 30.9375H21.1375C24.9037 30.9375 27.2193 30.3084 28.7879 28.7229C30.3363 27.1595 30.9323 24.8438 30.9323 21.1417V11.8625C30.9323 10.9612 30.8952 10.1439 30.8199 9.39778L30.8246 9.39675C30.7689 8.82802 31.1809 8.31961 31.7506 8.25928C32.3214 8.2005 32.8335 8.61506 32.8917 9.18483C32.8933 9.19978 32.8917 9.2137 32.8917 9.22866H32.8943C32.9567 9.88556 33 10.5739 33 11.3376V21.663C33 25.8926 32.0152 28.3872 30.2471 30.1744Z" fill="#4ABDAF"/>
</g>
<defs>
<clipPath id="clip0_31_375">
<rect width="33" height="33" fill="white"/>
</clipPath>
</defs>
</svg>
