<svg width="33" height="33" viewBox="0 0 33 33" fill="none" xmlns="http://www.w3.org/2000/svg">
<path fill-rule="evenodd" clip-rule="evenodd" d="M33 6.95236C33 7.40553 32.858 7.82422 32.6147 8.1664C31.9662 9.13649 31.0855 9.8407 30.2063 10.5784C30.026 10.7528 29.9118 10.99 29.8966 11.2571C29.7985 15.7144 28.1473 20.812 25.2057 24.1807C21.6875 28.2084 16.8913 30.9407 11.3433 30.9407C10.7745 30.9407 10.312 30.4784 10.312 29.9094C10.312 29.3394 10.7745 28.8782 11.3433 28.8782C21.5626 28.8782 27.1307 19.945 27.7793 12.3186C27.8095 12.2121 27.8281 12.0746 27.8281 11.8793C27.8281 11.8143 27.8292 11.7496 27.8326 11.6862C27.8835 10.797 28.2813 10.0004 28.8916 9.42911C28.9218 9.40017 28.945 9.37374 28.9671 9.34706C29.7119 8.6139 30.3987 7.75713 30.9304 6.95249C30.1751 7.29139 29.3785 7.54791 28.5507 7.72142C28.4123 7.72142 28.2954 7.60463 28.2954 7.46361C28.2954 7.3931 28.3241 7.32838 28.3704 7.28211C28.3724 7.27985 28.3634 7.28314 28.3624 7.28314C29.1751 6.57338 29.7985 5.6459 30.1338 4.58797C29.588 4.91404 29.0119 5.19499 28.4142 5.43217C28.028 5.58602 27.6085 5.6749 27.1665 5.6749C26.4786 5.6749 25.8392 5.46795 25.3074 5.11294C25.2868 5.09908 25.2657 5.0898 25.245 5.07717C24.3638 4.48523 23.3361 4.129 22.1719 4.129L22.0505 4.15091C19.489 4.15091 17.5423 5.59505 16.8147 7.80585C16.7943 7.81533 16.5858 8.73436 16.5649 8.8663C16.3718 10.0987 15.3059 11.0411 14.0188 11.0411C13.8791 11.0411 13.7413 11.0295 13.6071 11.0063C10.2251 10.3739 7.17167 8.91135 4.89261 6.5329C4.87875 6.5213 4.86818 6.51782 4.84853 6.49816C4.54689 6.19627 4.05769 6.19627 3.75482 6.49816C3.68431 6.5699 3.62991 6.65072 3.59169 6.73857C3.5826 6.76075 3.57687 6.76075 3.56978 6.76526C3.29456 7.40122 3.0934 8.08906 3.0934 8.76911C3.0934 10.1762 3.66568 11.4607 4.526 12.4817C4.526 12.483 4.51569 12.4772 4.5202 12.4817C4.59548 12.5718 4.64054 12.6876 4.64054 12.8135C4.64054 13.098 4.40915 13.3291 4.12465 13.3291C4.068 13.3291 4.01489 13.3143 3.96404 13.2969C3.95598 13.2933 3.94792 13.2898 3.93987 13.2866C3.93052 13.2898 3.92021 13.2946 3.90384 13.2866C3.83461 13.2518 3.75708 13.2322 3.674 13.2322C3.39401 13.2322 3.16746 13.4588 3.16037 13.7362C3.42875 15.5711 4.55494 17.1958 6.07539 18.1485C6.05573 18.1465 6.0442 18.1465 6.05122 18.1505C6.19096 18.2422 6.28461 18.4018 6.28461 18.582C6.28461 18.8665 6.05348 19.0977 5.76898 19.0977C5.76318 19.0977 5.75738 19.0966 5.75158 19.0966C5.74481 19.0951 5.73901 19.0931 5.73192 19.0921C5.71355 19.0896 5.69615 19.0861 5.67752 19.0841C5.53882 19.0911 5.43002 19.2008 5.43002 19.3394C5.43002 19.3802 5.43834 19.4179 5.45548 19.4516C5.8752 20.497 6.58515 21.3903 7.47899 22.0439C7.48956 22.0519 7.49181 22.059 7.50445 22.068C7.58076 22.1224 7.65249 22.1848 7.72197 22.2533C8.42593 22.9573 8.42593 24.0998 7.72197 24.8053C7.50573 25.0198 7.24889 25.1704 6.97722 25.2534C6.97496 25.2545 6.97619 25.2534 6.97367 25.2545C5.91697 25.5898 4.79761 25.7842 3.60903 25.7842C3.41013 25.7842 3.18834 25.7842 2.96501 25.7842C2.82276 25.7842 2.7072 25.9 2.7072 26.042C2.7072 26.1256 2.74877 26.1951 2.80891 26.2414C3.23339 26.4932 3.6682 26.7395 4.12014 26.9685L4.11911 26.9696C4.42301 27.1397 4.63248 27.4609 4.63248 27.8356C4.63248 28.3849 4.18737 28.8301 3.63797 28.8301C3.41367 28.8301 3.20794 28.7525 3.04126 28.6276C2.31868 28.2495 1.61801 27.8447 0.952077 27.4136C0.140612 26.8888 -0.204084 25.8676 0.121985 24.9517C0.418082 24.1143 1.19855 23.7215 2.06235 23.7215C2.44604 23.7679 3.21619 23.7215 3.60922 23.7215C4.40129 23.7215 5.05007 23.5584 5.80037 23.3771C4.67418 22.4219 3.80458 21.1499 3.33401 19.6665C3.21722 19.2974 3.20562 18.9102 3.29243 18.5452C1.96161 17.093 1.03084 14.9814 1.03084 12.8944C1.04115 12.3775 1.3707 11.9463 1.70734 11.5774C1.38127 10.6905 1.03084 9.7448 1.03084 8.76891C1.03084 7.34211 1.58243 5.93497 2.29115 4.70811C2.63334 4.11617 3.44854 3.66629 4.12478 3.61318C4.7434 3.61318 5.28694 3.95304 5.6812 4.44101C7.62613 6.84847 10.6703 8.1423 13.6651 8.88222C13.7159 8.89131 13.7703 8.89833 13.8247 8.89833C14.3162 8.89833 14.7231 8.55718 14.8295 8.09692C15.6503 4.63057 18.341 2.0625 22.0505 2.0625C23.6196 2.0625 25.1493 2.53559 26.4428 3.39236C26.6443 3.51953 26.8789 3.59706 27.1342 3.59706C27.2475 3.59706 27.3563 3.57844 27.459 3.55072C28.0179 3.34254 28.5622 3.10084 29.0779 2.79114C29.4052 2.59553 29.7693 2.58064 30.1323 2.58064C30.5905 2.58064 31.0472 2.65341 31.4218 2.95402C32.0936 3.49407 32.365 4.39719 32.1026 5.2227C32.1026 5.22496 32.1016 5.22721 32.1016 5.22947C32.644 5.60639 33 6.23784 33 6.95236ZM2.06235 23.7215C1.98126 23.7124 2.14311 23.7215 2.06235 23.7215V23.7215ZM4.12485 3.61318C4.07167 3.61318 4.17821 3.60834 4.12485 3.61318V3.61318ZM7.73467 28.3625C8.30366 28.3625 8.76618 28.8238 8.76618 29.3938C8.76618 29.9628 8.30366 30.425 7.73467 30.425C7.16465 30.425 6.70342 29.9628 6.70342 29.3938C6.70342 28.8238 7.16471 28.3625 7.73467 28.3625Z" fill="#4ABDAF"/>
</svg>
