<svg width="67" height="67" viewBox="0 0 67 67" fill="none" xmlns="http://www.w3.org/2000/svg">
<mask id="path-1-inside-1_29_72" fill="white">
<path d="M42.922 30.3594C42.922 31.1923 42.5911 31.9912 42.0021 32.5801C41.4131 33.1691 40.6143 33.5 39.7813 33.5H27.2188C26.3859 33.5 25.5871 33.1691 24.9981 32.5801C24.4091 31.9912 24.0782 31.1923 24.0782 30.3594V28.2656H8.22852C8.83986 29.9868 9.74679 31.5881 10.9085 32.9975C13.1512 35.8047 14.6716 39.1188 15.3368 42.6497C16.1952 46.8372 17.2526 51.9564 17.9854 55.5053C18.2281 56.6669 18.8583 57.7116 19.7727 58.468C20.6871 59.2244 21.8314 59.6477 23.0179 59.6684C24.2044 59.689 25.3627 59.3059 26.3029 58.5819C27.2431 57.8578 27.9094 56.8357 28.1924 55.6833L30.4537 46.4498C30.6239 45.7708 31.0161 45.168 31.568 44.7373C32.12 44.3066 32.8 44.0727 33.5001 44.0727C34.2002 44.0727 34.8802 44.3066 35.4321 44.7373C35.9841 45.168 36.3763 45.7708 36.5465 46.4498L38.8077 55.6833C39.093 56.8353 39.7613 57.8563 40.703 58.5786C41.6448 59.3009 42.804 59.6817 43.9907 59.6586C45.1773 59.6355 46.3208 59.2098 47.2337 58.4513C48.1466 57.6928 48.7746 56.6467 49.0148 55.4844C49.7476 51.9355 50.8049 46.7744 51.6634 42.6288C52.3285 39.0978 53.849 35.7837 56.0916 32.9766C57.2513 31.5735 58.1581 29.9794 58.7716 28.2656H42.922V30.3594Z"/>
</mask>
<path d="M42.922 30.3594C42.922 31.1923 42.5911 31.9912 42.0021 32.5801C41.4131 33.1691 40.6143 33.5 39.7813 33.5H27.2188C26.3859 33.5 25.5871 33.1691 24.9981 32.5801C24.4091 31.9912 24.0782 31.1923 24.0782 30.3594V28.2656H8.22852C8.83986 29.9868 9.74679 31.5881 10.9085 32.9975C13.1512 35.8047 14.6716 39.1188 15.3368 42.6497C16.1952 46.8372 17.2526 51.9564 17.9854 55.5053C18.2281 56.6669 18.8583 57.7116 19.7727 58.468C20.6871 59.2244 21.8314 59.6477 23.0179 59.6684C24.2044 59.689 25.3627 59.3059 26.3029 58.5819C27.2431 57.8578 27.9094 56.8357 28.1924 55.6833L30.4537 46.4498C30.6239 45.7708 31.0161 45.168 31.568 44.7373C32.12 44.3066 32.8 44.0727 33.5001 44.0727C34.2002 44.0727 34.8802 44.3066 35.4321 44.7373C35.9841 45.168 36.3763 45.7708 36.5465 46.4498L38.8077 55.6833C39.093 56.8353 39.7613 57.8563 40.703 58.5786C41.6448 59.3009 42.804 59.6817 43.9907 59.6586C45.1773 59.6355 46.3208 59.2098 47.2337 58.4513C48.1466 57.6928 48.7746 56.6467 49.0148 55.4844C49.7476 51.9355 50.8049 46.7744 51.6634 42.6288C52.3285 39.0978 53.849 35.7837 56.0916 32.9766C57.2513 31.5735 58.1581 29.9794 58.7716 28.2656H42.922V30.3594Z" stroke="#4ABDAF" stroke-width="6" mask="url(#path-1-inside-1_29_72)"/>
<mask id="path-2-inside-2_29_72" fill="white">
<path d="M61.7656 24.0781H59.6719C59.7345 23.2593 59.7345 22.4368 59.6719 21.618C59.4602 19.2406 58.7093 16.9427 57.4764 14.899C56.2434 12.8553 54.5608 11.1196 52.5564 9.82372C50.5521 8.52784 48.2786 7.70592 45.909 7.42042C43.5393 7.13493 41.1357 7.39336 38.8809 8.17609C35.3964 9.39036 31.6036 9.39036 28.1191 8.17609C25.8679 7.40496 23.4709 7.15553 21.1092 7.44664C18.7475 7.73776 16.4828 8.5618 14.4863 9.85652C12.4898 11.1512 10.8136 12.8828 9.58442 14.9203C8.35523 16.9578 7.60519 19.2481 7.39094 21.618C7.30209 22.4349 7.28108 23.2577 7.32812 24.0781H5.23438C4.95673 24.0781 4.69045 24.1884 4.49412 24.3847C4.2978 24.5811 4.1875 24.8474 4.1875 25.125C4.1875 25.4026 4.2978 25.6689 4.49412 25.8653C4.69045 26.0616 4.95673 26.1719 5.23438 26.1719H24.0781V24.0781C24.0781 23.2452 24.409 22.4463 24.998 21.8574C25.587 21.2684 26.3858 20.9375 27.2188 20.9375H39.7812C40.6142 20.9375 41.413 21.2684 42.002 21.8574C42.591 22.4463 42.9219 23.2452 42.9219 24.0781V26.1719H61.7656C62.0433 26.1719 62.3096 26.0616 62.5059 25.8653C62.7022 25.6689 62.8125 25.4026 62.8125 25.125C62.8125 24.8474 62.7022 24.5811 62.5059 24.3847C62.3096 24.1884 62.0433 24.0781 61.7656 24.0781ZM33.5 16.75C29.2681 16.672 25.1227 15.5385 21.44 13.4523C21.2979 13.398 21.1693 13.3133 21.0632 13.2042C20.9571 13.0951 20.8761 12.9642 20.8258 12.8206C20.7755 12.677 20.7571 12.5241 20.7719 12.3727C20.7867 12.2213 20.8343 12.0749 20.9115 11.9437C20.9886 11.8125 21.0934 11.6998 21.2186 11.6133C21.3438 11.5267 21.4863 11.4686 21.6363 11.4428C21.7863 11.417 21.9401 11.4242 22.087 11.4639C22.2338 11.5036 22.3703 11.5748 22.4869 11.6727C25.8627 13.5429 29.6417 14.5667 33.5 14.6562C37.3447 14.5645 41.1096 13.5407 44.4712 11.6727C44.5878 11.5748 44.7243 11.5036 44.8712 11.4639C45.0181 11.4242 45.1719 11.417 45.3218 11.4428C45.4718 11.4686 45.6143 11.5267 45.7395 11.6133C45.8647 11.6998 45.9695 11.8125 46.0467 11.9437C46.1238 12.0749 46.1714 12.2213 46.1862 12.3727C46.201 12.5241 46.1826 12.677 46.1323 12.8206C46.082 12.9642 46.001 13.0951 45.8949 13.2042C45.7888 13.3133 45.6603 13.398 45.5181 13.4523C41.8478 15.5318 37.7176 16.6651 33.5 16.75V16.75Z"/>
</mask>
<path d="M61.7656 24.0781H59.6719C59.7345 23.2593 59.7345 22.4368 59.6719 21.618C59.4602 19.2406 58.7093 16.9427 57.4764 14.899C56.2434 12.8553 54.5608 11.1196 52.5564 9.82372C50.5521 8.52784 48.2786 7.70592 45.909 7.42042C43.5393 7.13493 41.1357 7.39336 38.8809 8.17609C35.3964 9.39036 31.6036 9.39036 28.1191 8.17609C25.8679 7.40496 23.4709 7.15553 21.1092 7.44664C18.7475 7.73776 16.4828 8.5618 14.4863 9.85652C12.4898 11.1512 10.8136 12.8828 9.58442 14.9203C8.35523 16.9578 7.60519 19.2481 7.39094 21.618C7.30209 22.4349 7.28108 23.2577 7.32812 24.0781H5.23438C4.95673 24.0781 4.69045 24.1884 4.49412 24.3847C4.2978 24.5811 4.1875 24.8474 4.1875 25.125C4.1875 25.4026 4.2978 25.6689 4.49412 25.8653C4.69045 26.0616 4.95673 26.1719 5.23438 26.1719H24.0781V24.0781C24.0781 23.2452 24.409 22.4463 24.998 21.8574C25.587 21.2684 26.3858 20.9375 27.2188 20.9375H39.7812C40.6142 20.9375 41.413 21.2684 42.002 21.8574C42.591 22.4463 42.9219 23.2452 42.9219 24.0781V26.1719H61.7656C62.0433 26.1719 62.3096 26.0616 62.5059 25.8653C62.7022 25.6689 62.8125 25.4026 62.8125 25.125C62.8125 24.8474 62.7022 24.5811 62.5059 24.3847C62.3096 24.1884 62.0433 24.0781 61.7656 24.0781ZM33.5 16.75C29.2681 16.672 25.1227 15.5385 21.44 13.4523C21.2979 13.398 21.1693 13.3133 21.0632 13.2042C20.9571 13.0951 20.8761 12.9642 20.8258 12.8206C20.7755 12.677 20.7571 12.5241 20.7719 12.3727C20.7867 12.2213 20.8343 12.0749 20.9115 11.9437C20.9886 11.8125 21.0934 11.6998 21.2186 11.6133C21.3438 11.5267 21.4863 11.4686 21.6363 11.4428C21.7863 11.417 21.9401 11.4242 22.087 11.4639C22.2338 11.5036 22.3703 11.5748 22.4869 11.6727C25.8627 13.5429 29.6417 14.5667 33.5 14.6562C37.3447 14.5645 41.1096 13.5407 44.4712 11.6727C44.5878 11.5748 44.7243 11.5036 44.8712 11.4639C45.0181 11.4242 45.1719 11.417 45.3218 11.4428C45.4718 11.4686 45.6143 11.5267 45.7395 11.6133C45.8647 11.6998 45.9695 11.8125 46.0467 11.9437C46.1238 12.0749 46.1714 12.2213 46.1862 12.3727C46.201 12.5241 46.1826 12.677 46.1323 12.8206C46.082 12.9642 46.001 13.0951 45.8949 13.2042C45.7888 13.3133 45.6603 13.398 45.5181 13.4523C41.8478 15.5318 37.7176 16.6651 33.5 16.75V16.75Z" stroke="#4ABDAF" stroke-width="6" mask="url(#path-2-inside-2_29_72)"/>
<path d="M30.3594 24.0781C30.0817 24.0781 29.8154 24.1884 29.6191 24.3847C29.4228 24.5811 29.3125 24.8474 29.3125 25.125V26.1719H28.2656C27.988 26.1719 27.7217 26.2822 27.5254 26.4785C27.329 26.6748 27.2188 26.9411 27.2188 27.2188C27.2188 27.4964 27.329 27.7627 27.5254 27.959C27.7217 28.1553 27.988 28.2656 28.2656 28.2656H29.3125V29.3125C29.3125 29.5901 29.4228 29.8564 29.6191 30.0528C29.8154 30.2491 30.0817 30.3594 30.3594 30.3594C30.637 30.3594 30.9033 30.2491 31.0996 30.0528C31.296 29.8564 31.4062 29.5901 31.4062 29.3125V28.2656H35.5938V29.3125C35.5938 29.5901 35.704 29.8564 35.9004 30.0528C36.0967 30.2491 36.363 30.3594 36.6406 30.3594C36.9183 30.3594 37.1846 30.2491 37.3809 30.0528C37.5772 29.8564 37.6875 29.5901 37.6875 29.3125V28.2656H38.7344C39.012 28.2656 39.2783 28.1553 39.4746 27.959C39.671 27.7627 39.7812 27.4964 39.7812 27.2188C39.7812 26.9411 39.671 26.6748 39.4746 26.4785C39.2783 26.2822 39.012 26.1719 38.7344 26.1719H37.6875V25.125C37.6875 24.8474 37.5772 24.5811 37.3809 24.3847C37.1846 24.1884 36.9183 24.0781 36.6406 24.0781C36.363 24.0781 36.0967 24.1884 35.9004 24.3847C35.704 24.5811 35.5938 24.8474 35.5938 25.125V26.1719H31.4062V25.125C31.4062 24.8474 31.296 24.5811 31.0996 24.3847C30.9033 24.1884 30.637 24.0781 30.3594 24.0781Z" fill="#4ABDAF"/>
</svg>
