<svg width="67" height="67" viewBox="0 0 67 67" fill="none" xmlns="http://www.w3.org/2000/svg">
<g clip-path="url(#clip0_29_82)">
<path d="M28.631 53.3744L4.71251 29.2848C-1.57084 22.9559 -1.57084 12.6567 4.71251 6.32679L4.93968 6.09962C7.98399 3.03384 12.0364 1.34314 16.3464 1.34314C16.347 1.34314 16.3464 1.34314 16.347 1.34314C20.6569 1.34314 24.7083 3.03332 27.7542 6.10223L28.6305 6.9858L29.5072 6.10223C32.5541 3.03384 36.6056 1.34314 40.9155 1.34314C45.2255 1.34314 49.278 3.03332 52.3249 6.10223L52.55 6.3315C57.1379 10.9503 58.5276 17.8539 56.0863 23.9138L54.1439 23.1312C56.2716 17.8482 55.0614 11.8313 51.0592 7.80236L50.8342 7.57309C48.1877 4.90775 44.6634 3.43741 40.9155 3.43794C37.1677 3.43794 33.6439 4.90827 30.9933 7.57833L28.6294 9.95892L26.2671 7.5778C23.617 4.90827 20.0937 3.43794 16.3459 3.43794H16.3454C12.597 3.43794 9.07327 4.90827 6.42205 7.57833L6.19488 7.8055C0.722866 13.3189 0.722866 22.2942 6.19855 27.8092L28.6305 50.4023L32.1124 46.8953L33.5984 48.3703L28.631 53.3744Z" fill="#4ABDAF"/>
<path d="M57.6389 65.6569C54.7636 65.6569 53.5712 62.4445 51.4073 56.614C50.6332 54.5291 49.9119 53.9779 49.6376 53.9779C49.4083 53.9779 48.6394 54.4516 47.8375 56.6134C45.6746 62.4451 44.4838 65.6569 41.6065 65.6569C38.8344 65.6569 36.0287 61.707 36.0287 54.1585C36.0287 50.3798 35.2818 48.6514 34.4181 46.6514C33.7413 45.0837 32.9745 43.3071 32.4924 40.3968C31.5178 34.504 33.4592 28.9969 37.2143 27.0031C39.4159 25.7134 40.8051 25.0894 42.645 25.0894C43.9902 25.0894 45.4982 25.4228 47.8118 26.0368C48.44 26.2017 49.0351 26.3174 49.6229 26.3886C50.204 26.3184 50.7981 26.2033 51.4356 26.0363C53.745 25.4228 55.2536 25.0899 56.5993 25.0899C58.4418 25.0899 59.831 25.7139 62.0692 27.0246C65.7862 28.9964 67.7265 34.5034 66.7493 40.3973C66.2609 43.3469 65.4909 45.1297 64.811 46.7032C63.9531 48.6875 63.2124 50.4013 63.2124 54.1585C63.2124 61.707 60.4084 65.6569 57.6389 65.6569ZM49.6376 51.8831C51.1283 51.8831 52.3841 53.2294 53.3702 55.8848C55.3514 61.2234 56.3538 63.5626 57.6389 63.5626C58.814 63.5626 61.1181 60.7229 61.1181 54.1585C61.1181 49.9684 61.9782 47.9783 62.8879 45.872C63.5511 44.3378 64.2363 42.7518 64.6838 40.055C65.5019 35.1159 63.9735 30.4049 61.0491 28.8535C59.0265 27.67 57.9754 27.1847 56.5988 27.1847C55.4881 27.1847 54.0601 27.5061 51.9685 28.0615C51.1859 28.2667 50.4568 28.4043 49.736 28.4834L49.6208 28.4959L49.5057 28.4834C48.7776 28.4028 48.0484 28.2651 47.2758 28.062C45.181 27.5056 43.7536 27.1842 42.6434 27.1842C41.2694 27.1842 40.2178 27.6705 38.2324 28.832C35.2692 30.406 33.7397 35.1169 34.5574 40.0555C34.997 42.7125 35.6801 44.2928 36.3397 45.8212C37.2557 47.9432 38.1209 49.9475 38.1209 54.159C38.1209 60.7235 40.4282 63.5631 41.6049 63.5631C42.891 63.5631 43.8929 61.2239 45.8725 55.8859C47.1005 52.5772 48.598 51.8831 49.6376 51.8831Z" fill="#4ABDAF"/>
<path d="M36.8196 40.4047C36.1297 36.2339 37.3205 32.1799 39.5906 30.976L39.7079 30.9105C41.5949 29.805 42.3649 29.4994 43.2709 29.4994V31.5936C42.9391 31.5936 42.5428 31.6769 40.7464 32.729L40.5909 32.8159C39.4614 33.4157 38.2564 36.2585 38.8861 40.0634L36.8196 40.4047Z" fill="#4ABDAF"/>
<path d="M45.1611 15.8633H43.0674V21.5316H45.1611V15.8633Z" fill="#4ABDAF"/>
<path d="M39.9842 21.7887L38.0593 16.4611L36.0902 17.1725L38.015 22.5001L39.9842 21.7887Z" fill="#4ABDAF"/>
<path d="M35.2071 23.8092L31.5886 19.4673L29.9802 20.8077L33.5987 25.1496L35.2071 23.8092Z" fill="#4ABDAF"/>
<path d="M31.4054 27.3549L26.5315 24.5199L25.4788 26.3298L30.3526 29.1648L31.4054 27.3549Z" fill="#4ABDAF"/>
<path d="M29.0329 31.9937L23.4885 31.0088L23.1223 33.0703L28.6667 34.0552L29.0329 31.9937Z" fill="#4ABDAF"/>
<path d="M28.7417 39.2329L28.3757 37.1714L22.8329 38.1554L23.1988 40.2169L28.7417 39.2329Z" fill="#4ABDAF"/>
<path d="M30.5732 44.0725L29.5205 42.2627L24.6453 45.0985L25.698 46.9083L30.5732 44.0725Z" fill="#4ABDAF"/>
</g>
<defs>
<clipPath id="clip0_29_82">
<rect width="67" height="67" fill="white"/>
</clipPath>
</defs>
</svg>
