<svg width="67" height="67" viewBox="0 0 67 67" fill="none" xmlns="http://www.w3.org/2000/svg">
<g clip-path="url(#clip0_29_77)">
<path d="M19.4302 23.2797C19.6131 22.7332 19.3184 22.1417 18.7718 21.9588C18.2253 21.7759 17.6338 22.0706 17.4509 22.6172C14.6465 30.9412 19.7778 41.7565 20.4451 43.1054C22.6391 55.762 27.0106 58.2005 27.0423 58.2185L27.0411 58.2206C27.1003 58.255 27.1615 58.2828 27.2238 58.3044C33.6865 60.9376 33.2243 48.1954 33.2231 48.1588L32.1803 48.1874L33.2267 48.1548C33.2258 48.1264 33.2238 48.0984 33.2207 48.0707C33.0915 43.7403 33.9973 41.0162 35.2049 39.8493C35.5678 39.4986 35.9412 39.3232 36.2928 39.3232C36.6444 39.3232 37.0178 39.4986 37.3807 39.8493C38.596 41.0237 39.5059 43.7747 39.3626 48.1532L39.359 48.1531C39.358 48.1841 39.3585 48.2147 39.3601 48.245C39.3331 49.3614 39.2007 60.894 45.4242 58.2801L45.0194 57.315L45.4247 58.2802C45.5073 58.2455 45.5832 58.2015 45.6516 58.1498C46.3405 57.6821 50.1444 54.6279 52.1417 43.0988C52.9457 41.4746 60.2237 26.124 52.293 17.8822C50.8194 15.3738 46.1561 13.7718 40.789 13.2664C35.4441 12.763 29.3092 13.2999 25.0071 15.0804C24.4741 15.2994 24.2196 15.9092 24.4386 16.4422C24.6577 16.9751 25.2674 17.2296 25.8004 17.0106C29.7892 15.3598 35.545 14.8684 40.5927 15.3438C45.39 15.7956 49.4569 17.0688 50.5106 18.9825C50.5577 19.0725 50.6188 19.1571 50.6938 19.2331L50.6959 19.2311C57.9063 26.5348 50.7994 41.1168 50.2409 42.2307C50.1753 42.3395 50.1286 42.4621 50.1059 42.5948L51.1378 42.771L50.1073 42.5952C48.2432 53.5138 45.0594 56.0358 44.5621 56.3697C41.3067 57.6473 41.4223 49.256 41.4457 48.3047C41.4487 48.2774 41.4508 48.2497 41.4517 48.2217L41.448 48.2216L41.448 48.2201H41.4482C41.6132 43.1871 40.4156 39.8782 38.8284 38.3444C38.0592 37.6011 37.1868 37.2294 36.2928 37.2294C35.3989 37.2294 34.5265 37.6011 33.7573 38.3444C32.1795 39.8691 30.987 43.1483 31.135 48.1313C31.1334 48.1607 31.133 48.1902 31.134 48.2201L31.1375 48.22V48.2202H31.1376C31.1434 48.3931 31.4416 57.7113 28.0236 56.3697C27.5272 56.0364 24.3534 53.5217 22.4879 42.6498C22.4739 42.5296 22.4388 42.4099 22.3807 42.2959L22.38 42.2962C22.3553 42.2481 16.7245 31.3108 19.4302 23.2797L19.4302 23.2797Z" fill="#4ABDAF"/>
<path d="M22.9355 9.19667L25.4279 16.3021L32.1227 18.3591L32.1236 18.3562C32.6762 18.526 32.9866 19.1118 32.8168 19.6644C32.7066 20.0231 32.4213 20.2796 32.0835 20.3692L24.9781 22.8616L22.921 29.5564L22.9239 29.5573C22.7541 30.11 22.1684 30.4204 21.6157 30.2506C21.2571 30.1404 21.0006 29.855 20.911 29.5172L18.4185 22.4118L11.7237 20.3548L11.7228 20.3577C11.1702 20.1878 10.8598 19.6021 11.0296 19.0494C11.1398 18.6908 11.4252 18.4343 11.7629 18.3447L18.8683 15.8522L20.9254 9.15744L20.9225 9.15655C21.0923 8.60389 21.6781 8.2935 22.2307 8.46332C22.5893 8.57352 22.8459 8.85888 22.9355 9.19666L22.9355 9.19667ZM24.6176 17.1451L23.6321 17.4886L21.9889 12.8044L20.7326 16.893C20.6555 17.2328 20.4109 17.5266 20.0579 17.6504L19.7114 16.6625L20.0549 17.6481L15.3706 19.2912L19.4593 20.5475C19.799 20.6246 20.0929 20.8693 20.2167 21.2222L19.2288 21.5687L20.2144 21.2252L21.8575 25.9095L23.1138 21.8209C23.1909 21.4811 23.4355 21.1873 23.7885 21.0635L24.135 22.0513L23.7915 21.0658L28.4758 19.4226L24.3872 18.1663C24.0474 18.0893 23.7536 17.8446 23.6298 17.4917L24.6176 17.1451V17.1451Z" fill="#4ABDAF"/>
</g>
<defs>
<clipPath id="clip0_29_77">
<rect width="67" height="67" fill="white"/>
</clipPath>
</defs>
</svg>
