<svg width="67" height="67" viewBox="0 0 67 67" fill="none" xmlns="http://www.w3.org/2000/svg">
<g clip-path="url(#clip0_29_106)">
<path d="M13.2849 39.2777H11.1916V30.4123C10.8875 28.697 9.68414 26.9031 8.01228 26.9021L6.53566 26.9136L6.44092 24.822C6.52781 24.8141 6.59219 24.8099 6.65867 24.8099L8.01175 24.8083C10.8996 24.8104 12.8431 27.5009 13.2718 30.1574L13.2849 30.3238V39.2777Z" fill="#4ABDAF"/>
<path d="M27.5674 59.8938H25.4736V52.9311L24.2043 46.5221L14.6746 36.8908C13.847 37.9869 13.5539 39.7739 14.3233 40.8182L20.3282 46.888L18.8417 48.3615L12.9577 42.4403C12.8891 42.3671 12.8242 42.2922 12.7625 42.2153L9.3711 38.7867L5.76095 34.9301V25.6542C5.45684 23.9384 4.25345 22.144 2.58159 22.143L2.11573 22.1435L2.27172 36.94L14.1757 57.1364L12.372 58.1989L0.18425 37.5216L0 20.1089L1.01023 20.0634C1.09765 20.0561 1.16098 20.0519 1.22746 20.0519L2.58055 20.0503C5.46835 20.0524 7.41135 22.7434 7.84109 25.4003L7.85418 25.5673V34.1046L10.8791 37.3379L11.86 38.3287C12.0679 37.0599 12.6792 35.8461 13.5534 35.0117L13.6078 34.963C13.6078 34.9625 13.9543 34.6751 14.0072 34.6301L14.7473 33.9962L15.4356 34.6856L26.1347 45.4988L27.5663 52.8295V59.8938H27.5674Z" fill="#4ABDAF"/>
<path d="M30.8304 59.2777H9.75684V61.3709H30.8304V59.2777Z" fill="#4ABDAF"/>
<path d="M55.8193 39.2777H53.7261L53.7392 30.1584C54.1668 27.5014 56.1093 24.8109 58.996 24.8088L60.3533 24.8104C60.4182 24.8104 60.4816 24.8146 60.5449 24.8204L60.4758 26.9141L60.3601 26.9057L58.9955 26.9026C57.3252 26.9036 56.1224 28.6969 55.8193 30.4128V39.2777Z" fill="#4ABDAF"/>
<path d="M41.5354 59.8943H39.4421L39.462 52.6248L40.8769 45.4977L52.2538 33.9967L53.4551 35.0101C54.3297 35.8444 54.9416 37.0583 55.1521 38.325L56.1513 37.3153L59.1564 34.103L59.1695 25.3998C59.5971 22.7428 61.5401 20.0518 64.4269 20.0492L65.7852 20.0508C65.848 20.0508 65.9103 20.055 65.9736 20.0607L66.9844 20.1057L67.0001 21.1196L66.8279 37.521L54.6386 58.1984L52.8359 57.1358L64.7404 36.9395L64.8959 22.144L64.4269 22.1429C62.7566 22.144 61.5532 23.9383 61.2501 25.6542V34.9305L57.6599 38.7663L54.2664 42.1979C54.2062 42.2733 54.1429 42.3461 54.0759 42.4172L48.1694 48.3614L46.6828 46.8879L52.7045 40.8003C53.4588 39.7749 53.1635 37.989 52.3349 36.8918L42.8073 46.5231L41.5348 52.9315V59.8943H41.5354Z" fill="#4ABDAF"/>
<path d="M57.2531 59.2777H36.179V61.3709H57.2531V59.2777Z" fill="#4ABDAF"/>
<path d="M26.8894 64.2106H24.7957V66.9628H26.8894V64.2106Z" fill="#4ABDAF"/>
<path d="M42.0319 64.2106H39.9387V66.9628H42.0319V64.2106Z" fill="#4ABDAF"/>
<path d="M40.5072 38.5239C37.8995 38.5239 36.8463 35.6753 34.9347 30.5032C34.2495 28.6524 33.6371 28.2744 33.511 28.2744C33.378 28.2744 32.7431 28.6529 32.0589 30.5038C30.15 35.6753 29.0984 38.5239 26.4864 38.5239C23.999 38.5239 21.4808 35.0142 21.4808 28.3043C21.4808 25.0139 20.8328 23.5085 20.0827 21.765C19.4881 20.3826 18.8144 18.8164 18.3909 16.2479C17.5299 11.0225 19.2546 6.13408 22.5858 4.35962C26.031 2.33392 27.1732 2.22766 31.9469 3.49909C32.4908 3.64251 32.9996 3.74249 33.4963 3.80321C33.9904 3.74354 34.5003 3.64356 35.0493 3.49857C39.8226 2.22714 40.9663 2.33287 44.4487 4.38161C45.7243 5.0605 46.8303 6.27488 47.6087 7.87189L45.7264 8.78843C45.1428 7.5908 44.3472 6.69886 43.4254 6.20736C40.4193 4.44075 39.8357 4.38998 35.5848 5.52218C34.8897 5.70538 34.2438 5.82786 33.6099 5.89696L33.4958 5.909L33.3817 5.89696C32.7441 5.82682 32.0998 5.70433 31.4099 5.5227C27.1622 4.39103 26.5791 4.44023 23.608 6.1859C21.0605 7.54474 19.7508 11.6244 20.4564 15.9077C20.838 18.2239 21.4321 19.6037 22.0058 20.9379C22.8124 22.8129 23.574 24.5832 23.574 28.3043C23.574 33.9768 25.5029 36.4306 26.4859 36.4306C27.5249 36.4306 28.4252 34.3002 30.0945 29.7783C31.1947 26.8051 32.5593 26.1812 33.5099 26.1812C34.874 26.1812 36.0135 27.3909 36.8976 29.7772C38.6071 34.4034 39.4651 36.4306 40.5067 36.4306C41.4902 36.4306 43.4181 33.9768 43.4181 28.3043C43.4181 24.6025 44.1749 22.8453 44.9758 20.9845C45.5532 19.645 46.1494 18.26 46.5372 15.9077L48.6027 16.2479C48.173 18.8526 47.4962 20.425 46.8984 21.8126C46.1541 23.541 45.5113 25.0338 45.5113 28.3043C45.5113 35.0142 42.9941 38.5239 40.5072 38.5239Z" fill="#4ABDAF"/>
<path d="M53.7294 23.9237L50.4333 15.3005L41.9395 11.9814L50.4333 8.66074L53.7299 0.0371094L57.0296 8.66074L65.5214 11.9814L57.0296 15.3005L53.7294 23.9237ZM47.6894 11.9809L52.057 13.6884L53.7304 18.0638L55.4044 13.6884L59.7719 11.9809L55.4044 10.2729L53.7304 5.89699L52.057 10.2729L47.6894 11.9809Z" fill="#4ABDAF"/>
<path d="M14.8894 19.084L9.95752 14.0974L8.46923 15.5694L13.4012 20.556L14.8894 19.084Z" fill="#4ABDAF"/>
<path d="M14.8891 15.569L13.4006 14.0973L8.46942 19.0846L9.95791 20.5564L14.8891 15.569Z" fill="#4ABDAF"/>
</g>
<defs>
<clipPath id="clip0_29_106">
<rect width="67" height="67" fill="white"/>
</clipPath>
</defs>
</svg>
